  0
SECTION
  2
HEADER
  9
$ACADVER
  1
AC1006
  9
$EXTMIN
 10
0.000000
 20
0.000000
 30
0.000000
  9
$EXTMAX
 10
1024.000000
 20
1024.000000
 30
0.000000
  0
ENDSEC
  0
SECTION
  2
ENTITIES
  0
POLYLINE
  8
0
 66
1
 70
1
  0
VERTEX
  8
0
 10
545.361865
 20
842.940676
 42
0.045216
  0
VERTEX
  8
0
 10
545.827551
 20
841.367316
 42
0.012557
  0
VERTEX
  8
0
 10
546.838253
 20
838.998272
 42
0.012569
  0
VERTEX
  8
0
 10
548.122887
 20
836.362464
 42
0.012873
  0
VERTEX
  8
0
 10
549.528653
 20
833.815798
 42
-0.007966
  0
VERTEX
  8
0
 10
550.859913
 20
831.459075
 42
-0.012787
  0
VERTEX
  8
0
 10
551.910966
 20
829.403648
 42
-0.006551
  0
VERTEX
  8
0
 10
552.712972
 20
827.673287
 42
-0.311067
  0
VERTEX
  8
0
 10
552.646631
 20
827.313298
 42
-0.310459
  0
VERTEX
  8
0
 10
552.272681
 20
827.243956
 42
-0.003677
  0
VERTEX
  8
0
 10
549.883803
 20
828.328155
 42
-0.009447
  0
VERTEX
  8
0
 10
547.089327
 20
829.685978
 42
-0.005840
  0
VERTEX
  8
0
 10
543.854842
 20
831.381715
 42
0.025977
  0
VERTEX
  8
0
 10
532.346191
 20
836.836534
 42
0.022810
  0
VERTEX
  8
0
 10
519.828697
 20
841.335812
 42
0.023019
  0
VERTEX
  8
0
 10
508.300070
 20
844.321567
 42
0.073608
  0
VERTEX
  8
0
 10
500.391852
 20
844.800099
 42
0.015205
  0
VERTEX
  8
0
 10
498.140296
 20
844.535634
 42
0.672799
  0
VERTEX
  8
0
 10
498.058175
 20
844.198586
 42
0.081344
  0
VERTEX
  8
0
 10
499.012430
 20
843.722248
 42
0.001767
  0
VERTEX
  8
0
 10
504.000000
 20
842.195133
 42
-0.020223
  0
VERTEX
  8
0
 10
528.070671
 20
833.841867
 42
-0.049212
  0
VERTEX
  8
0
 10
544.779863
 20
825.294964
 42
-0.050105
  0
VERTEX
  8
0
 10
559.320724
 20
813.744519
 42
-0.021632
  0
VERTEX
  8
0
 10
576.314575
 20
795.725646
 42
0.006931
  0
VERTEX
  8
0
 10
578.606047
 20
793.148223
 42
0.010483
  0
VERTEX
  8
0
 10
580.677432
 20
790.975658
 42
0.005548
  0
VERTEX
  8
0
 10
582.466714
 20
789.215569
 42
0.193896
  0
VERTEX
  8
0
 10
583.001705
 20
789.000000
 42
0.434216
  0
VERTEX
  8
0
 10
583.601134
 20
789.641517
 42
0.021176
  0
VERTEX
  8
0
 10
583.244607
 20
792.865109
 42
0.023123
  0
VERTEX
  8
0
 10
582.385132
 20
797.132709
 42
0.012839
  0
VERTEX
  8
0
 10
580.965292
 20
802.250000
 42
-0.005149
  0
VERTEX
  8
0
 10
580.316769
 20
804.455149
 42
-0.008792
  0
VERTEX
  8
0
 10
579.826766
 20
806.310938
 42
-0.003224
  0
VERTEX
  8
0
 10
579.454128
 20
807.873427
 42
-0.482582
  0
VERTEX
  8
0
 10
579.554729
 20
808.000000
 42
-0.138434
  0
VERTEX
  8
0
 10
579.793856
 20
807.932500
 42
-0.002003
  0
VERTEX
  8
0
 10
581.061554
 20
807.147848
 42
-0.005336
  0
VERTEX
  8
0
 10
582.526840
 20
806.210878
 42
-0.003474
  0
VERTEX
  8
0
 10
584.199868
 20
805.099058
 42
0.026072
  0
VERTEX
  8
0
 10
586.722060
 20
803.582536
 42
0.004968
  0
VERTEX
  8
0
 10
591.473863
 20
801.113012
 42
0.005288
  0
VERTEX
  8
0
 10
597.086410
 20
798.340847
 42
0.004839
  0
VERTEX
  8
0
 10
602.923920
 20
795.603203
 42
-0.010321
  0
VERTEX
  8
0
 10
614.535207
 20
790.001705
 42
-0.023485
  0
VERTEX
  8
0
 10
622.998019
 20
785.188904
 42
-0.030092
  0
VERTEX
  8
0
 10
629.520394
 20
780.490897
 42
-0.036504
  0
VERTEX
  8
0
 10
634.995386
 20
775.314670
 42
-0.040346
  0
VERTEX
  8
0
 10
638.369675
 20
770.965307
 42
-0.043757
  0
VERTEX
  8
0
 10
640.898891
 20
766.242987
 42
-0.045896
  0
VERTEX
  8
0
 10
642.470831
 20
761.378005
 42
-0.055255
  0
VERTEX
  8
0
 10
643.000000
 20
756.604213
 42
0.007626
  0
VERTEX
  8
0
 10
643.029490
 20
754.670828
 42
0.231585
  0
VERTEX
  8
0
 10
643.249436
 20
754.254118
 42
0.354148
  0
VERTEX
  8
0
 10
643.639361
 20
754.273916
 42
0.013973
  0
VERTEX
  8
0
 10
644.750000
 20
755.328268
 42
0.107889
  0
VERTEX
  8
0
 10
645.654494
 20
756.744071
 42
0.057912
  0
VERTEX
  8
0
 10
646.145272
 20
758.768322
 42
0.029505
  0
VERTEX
  8
0
 10
646.350420
 20
762.011398
 42
0.005356
  0
VERTEX
  8
0
 10
646.311023
 20
768.042554
 42
-0.007180
  0
VERTEX
  8
0
 10
646.298903
 20
772.244018
 42
-0.011950
  0
VERTEX
  8
0
 10
646.424084
 20
775.781250
 42
-0.005614
  0
VERTEX
  8
0
 10
646.629822
 20
778.694580
 42
-0.390473
  0
VERTEX
  8
0
 10
646.961282
 20
779.000000
 42
-0.320687
  0
VERTEX
  8
0
 10
647.574668
 20
778.561495
 42
-0.014037
  0
VERTEX
  8
0
 10
648.399863
 20
775.907227
 42
-0.015649
  0
VERTEX
  8
0
 10
649.353515
 20
772.044646
 42
-0.005174
  0
VERTEX
  8
0
 10
650.516595
 20
766.319098
 42
0.030120
  0
VERTEX
  8
0
 10
650.848553
 20
765.020591
 42
0.028667
  0
VERTEX
  8
0
 10
651.338524
 20
763.749139
 42
0.029893
  0
VERTEX
  8
0
 10
651.902856
 20
762.678038
 42
0.083541
  0
VERTEX
  8
0
 10
652.455299
 20
762.037099
 42
0.114804
  0
VERTEX
  8
0
 10
653.157872
 20
761.685400
 42
0.240039
  0
VERTEX
  8
0
 10
653.736862
 20
761.824424
 42
0.112754
  0
VERTEX
  8
0
 10
654.270960
 20
762.542642
 42
0.019860
  0
VERTEX
  8
0
 10
654.891020
 20
764.117224
 42
0.084055
  0
VERTEX
  8
0
 10
655.942010
 20
770.324956
 42
0.076261
  0
VERTEX
  8
0
 10
654.955070
 20
776.757993
 42
0.069592
  0
VERTEX
  8
0
 10
651.945065
 20
783.095319
 42
0.053522
  0
VERTEX
  8
0
 10
647.068280
 20
789.012328
 42
0.046568
  0
VERTEX
  8
0
 10
640.760553
 20
794.128428
 42
0.032396
  0
VERTEX
  8
0
 10
632.813120
 20
798.717172
 42
0.023569
  0
VERTEX
  8
0
 10
622.049307
 20
803.417584
 42
0.008978
  0
VERTEX
  8
0
 10
606.648529
 20
808.980766
 42
-0.010759
  0
VERTEX
  8
0
 10
590.247699
 20
814.971329
 42
-0.031913
  0
VERTEX
  8
0
 10
579.392841
 20
820.022374
 42
-0.038386
  0
VERTEX
  8
0
 10
570.408155
 20
825.858443
 42
-0.022055
  0
VERTEX
  8
0
 10
560.500000
 20
834.151628
 42
0.004263
  0
VERTEX
  8
0
 10
551.234609
 20
842.484848
 42
0.049523
  0
VERTEX
  8
0
 10
547.284151
 20
845.334978
 42
0.392785
  0
VERTEX
  8
0
 10
545.780761
 20
844.994814
 42
0.201963
  0
SEQEND
  0
POLYLINE
  8
0
 66
1
 70
1
  0
VERTEX
  8
0
 10
595.551430
 20
840.048570
 42
0.087030
  0
VERTEX
  8
0
 10
596.354083
 20
839.485456
 42
0.001602
  0
VERTEX
  8
0
 10
601.069833
 20
837.294390
 42
0.003899
  0
VERTEX
  8
0
 10
606.609916
 20
834.794045
 42
0.002590
  0
VERTEX
  8
0
 10
613.001430
 20
832.008691
 42
-0.022843
  0
VERTEX
  8
0
 10
640.870482
 20
818.495752
 42
-0.055927
  0
VERTEX
  8
0
 10
659.537983
 20
805.479526
 42
-0.076501
  0
VERTEX
  8
0
 10
671.205021
 20
791.556452
 42
-0.089708
  0
VERTEX
  8
0
 10
677.359124
 20
775.491130
 42
0.000000
  0
VERTEX
  8
0
 10
678.681110
 20
768.500000
 42
0.000000
  0
VERTEX
  8
0
 10
679.412898
 20
773.593716
 42
0.072954
  0
VERTEX
  8
0
 10
679.386261
 20
782.589228
 42
0.052579
  0
VERTEX
  8
0
 10
676.863630
 20
792.319447
 42
0.050032
  0
VERTEX
  8
0
 10
672.172107
 20
801.819386
 42
0.050907
  0
VERTEX
  8
0
 10
665.710266
 20
810.138159
 42
0.050126
  0
VERTEX
  8
0
 10
655.113357
 20
819.218584
 42
0.038551
  0
VERTEX
  8
0
 10
641.970605
 20
826.941278
 42
0.034266
  0
VERTEX
  8
0
 10
626.226592
 20
833.333656
 42
0.024142
  0
VERTEX
  8
0
 10
607.800966
 20
838.411390
 42
0.001269
  0
VERTEX
  8
0
 10
599.236703
 20
840.309378
 42
0.020675
  0
VERTEX
  8
0
 10
596.336955
 20
840.819714
 42
0.210828
  0
VERTEX
  8
0
 10
595.575402
 20
840.598495
 42
0.439968
  0
SEQEND
  0
POLYLINE
  8
0
 66
1
 70
1
  0
VERTEX
  8
0
 10
452.584979
 20
826.444054
 42
0.032087
  0
VERTEX
  8
0
 10
435.778043
 20
823.046524
 42
0.034354
  0
VERTEX
  8
0
 10
419.935298
 20
817.579335
 42
0.035600
  0
VERTEX
  8
0
 10
405.527142
 20
810.221524
 42
0.040865
  0
VERTEX
  8
0
 10
393.000000
 20
801.183339
 42
0.018372
  0
VERTEX
  8
0
 10
391.703562
 20
799.991404
 42
0.030415
  0
VERTEX
  8
0
 10
390.712864
 20
798.883976
 42
0.031669
  0
VERTEX
  8
0
 10
390.080179
 20
797.970383
 42
0.341575
  0
VERTEX
  8
0
 10
390.128900
 20
797.551979
 42
0.297401
  0
VERTEX
  8
0
 10
390.679746
 20
797.429708
 42
0.003413
  0
VERTEX
  8
0
 10
394.353947
 20
798.840183
 42
0.009021
  0
VERTEX
  8
0
 10
398.649275
 20
800.612857
 42
0.005598
  0
VERTEX
  8
0
 10
403.628900
 20
802.840448
 42
-0.040369
  0
VERTEX
  8
0
 10
431.071191
 20
812.893210
 42
-0.042844
  0
VERTEX
  8
0
 10
459.231642
 20
818.157738
 42
-0.043303
  0
VERTEX
  8
0
 10
487.598403
 20
818.515966
 42
-0.043075
  0
VERTEX
  8
0
 10
515.654692
 20
813.987685
 42
-0.027176
  0
VERTEX
  8
0
 10
528.706356
 20
809.943822
 42
-0.032610
  0
VERTEX
  8
0
 10
540.444135
 20
804.702160
 42
-0.032785
  0
VERTEX
  8
0
 10
551.348945
 20
798.005304
 42
-0.027995
  0
VERTEX
  8
0
 10
561.904977
 20
789.603351
 42
0.011185
  0
VERTEX
  8
0
 10
568.731271
 20
783.784842
 42
0.176952
  0
VERTEX
  8
0
 10
571.568651
 20
782.802751
 42
0.592875
  0
VERTEX
  8
0
 10
572.231910
 20
784.066215
 42
0.020497
  0
VERTEX
  8
0
 10
568.135279
 20
789.709644
 42
0.087996
  0
VERTEX
  8
0
 10
547.627283
 20
807.928696
 42
0.060829
  0
VERTEX
  8
0
 10
519.336420
 20
820.879967
 42
0.056601
  0
VERTEX
  8
0
 10
486.507240
 20
827.354588
 42
0.054291
  0
SEQEND
  0
POLYLINE
  8
0
 66
1
 70
1
  0
VERTEX
  8
0
 10
467.496033
 20
804.519056
 42
0.026057
  0
VERTEX
  8
0
 10
458.969229
 20
802.548634
 42
0.014315
  0
VERTEX
  8
0
 10
448.757058
 20
799.301836
 42
0.012525
  0
VERTEX
  8
0
 10
437.104044
 20
794.895589
 42
0.008651
  0
VERTEX
  8
0
 10
424.135555
 20
789.353580
 42
-0.004248
  0
VERTEX
  8
0
 10
418.052095
 20
786.690256
 42
-0.003855
  0
VERTEX
  8
0
 10
411.724386
 20
784.041351
 42
-0.003860
  0
VERTEX
  8
0
 10
406.025599
 20
781.758400
 42
-0.012360
  0
VERTEX
  8
0
 10
402.179276
 20
780.360534
 42
-0.038504
  0
VERTEX
  8
0
 10
386.211849
 20
776.336097
 42
-0.043091
  0
VERTEX
  8
0
 10
370.410609
 20
775.008878
 42
-0.044993
  0
VERTEX
  8
0
 10
355.249454
 20
776.411576
 42
-0.050467
  0
VERTEX
  8
0
 10
341.182633
 20
780.502736
 42
0.000589
  0
VERTEX
  8
0
 10
326.414598
 20
786.447564
 42
0.021727
  0
VERTEX
  8
0
 10
322.987147
 20
787.652563
 42
0.179847
  0
VERTEX
  8
0
 10
321.612162
 20
787.568225
 42
0.296684
  0
VERTEX
  8
0
 10
321.000000
 20
786.627360
 42
0.218044
  0
VERTEX
  8
0
 10
322.344181
 20
783.691541
 42
0.011474
  0
VERTEX
  8
0
 10
330.517587
 20
776.957880
 42
0.018812
  0
VERTEX
  8
0
 10
339.591500
 20
770.362095
 42
0.031401
  0
VERTEX
  8
0
 10
347.743595
 20
765.605889
 42
0.038690
  0
VERTEX
  8
0
 10
354.178177
 20
762.975752
 42
0.024269
  0
VERTEX
  8
0
 10
362.034882
 20
760.867553
 42
0.023747
  0
VERTEX
  8
0
 10
370.341015
 20
759.474726
 42
0.029470
  0
VERTEX
  8
0
 10
378.162032
 20
759.007006
 42
0.037580
  0
VERTEX
  8
0
 10
390.982574
 20
759.961541
 42
0.033821
  0
VERTEX
  8
0
 10
403.987935
 20
762.829653
 42
0.025285
  0
VERTEX
  8
0
 10
419.499130
 20
768.233522
 42
0.009563
  0
VERTEX
  8
0
 10
440.602403
 20
777.278517
 42
-0.005621
  0
VERTEX
  8
0
 10
465.361881
 20
788.122412
 42
-0.033196
  0
VERTEX
  8
0
 10
478.725942
 20
792.777639
 42
-0.047644
  0
VERTEX
  8
0
 10
490.445182
 20
794.832916
 42
-0.019306
  0
VERTEX
  8
0
 10
506.665328
 20
795.478596
 42
0.003555
  0
VERTEX
  8
0
 10
513.678362
 20
795.536719
 42
0.005596
  0
VERTEX
  8
0
 10
519.698088
 20
795.696817
 42
0.001762
  0
VERTEX
  8
0
 10
524.886925
 20
795.911270
 42
0.187036
  0
VERTEX
  8
0
 10
525.523413
 20
796.191419
 42
0.518573
  0
VERTEX
  8
0
 10
525.358591
 20
797.149163
 42
0.024979
  0
VERTEX
  8
0
 10
521.833179
 20
798.613301
 42
0.020214
  0
VERTEX
  8
0
 10
516.241999
 20
800.362882
 42
0.007035
  0
VERTEX
  8
0
 10
508.060199
 20
802.441352
 42
0.023016
  0
VERTEX
  8
0
 10
497.540677
 20
804.450073
 42
0.022874
  0
VERTEX
  8
0
 10
486.859448
 20
805.488514
 42
0.023836
  0
VERTEX
  8
0
 10
476.634612
 20
805.524432
 42
0.032724
  0
SEQEND
  0
POLYLINE
  8
0
 66
1
 70
1
  0
VERTEX
  8
0
 10
592.000000
 20
794.140790
 42
0.170661
  0
VERTEX
  8
0
 10
592.363391
 20
793.107139
 42
0.004577
  0
VERTEX
  8
0
 10
595.462528
 20
789.315846
 42
0.007747
  0
VERTEX
  8
0
 10
599.659995
 20
784.431695
 42
0.003126
  0
VERTEX
  8
0
 10
605.533319
 20
777.890803
 42
-0.028016
  0
VERTEX
  8
0
 10
612.453532
 20
769.366525
 42
-0.025727
  0
VERTEX
  8
0
 10
618.591990
 20
759.882802
 42
-0.026919
  0
VERTEX
  8
0
 10
623.350123
 20
750.496724
 42
-0.048762
  0
VERTEX
  8
0
 10
626.039275
 20
742.324746
 42
-0.025292
  0
VERTEX
  8
0
 10
626.474736
 20
739.786244
 42
-0.045290
  0
VERTEX
  8
0
 10
626.535612
 20
737.672835
 42
-0.043439
  0
VERTEX
  8
0
 10
626.214097
 20
735.524347
 42
-0.021332
  0
VERTEX
  8
0
 10
625.454541
 20
732.863135
 42
-0.027848
  0
VERTEX
  8
0
 10
623.905080
 20
728.942450
 42
-0.314275
  0
VERTEX
  8
0
 10
622.538961
 20
728.142476
 42
-0.322933
  0
VERTEX
  8
0
 10
621.349854
 20
729.152153
 42
-0.028595
  0
VERTEX
  8
0
 10
620.583308
 20
733.250000
 42
0.059386
  0
VERTEX
  8
0
 10
619.108102
 20
739.115837
 42
0.024612
  0
VERTEX
  8
0
 10
615.811664
 20
746.613398
 42
0.024090
  0
VERTEX
  8
0
 10
611.481848
 20
754.324853
 42
0.030167
  0
VERTEX
  8
0
 10
606.715396
 20
761.000000
 42
0.038275
  0
VERTEX
  8
0
 10
601.758196
 20
766.247812
 42
0.011767
  0
VERTEX
  8
0
 10
593.519487
 20
773.384160
 42
0.004205
  0
VERTEX
  8
0
 10
584.682790
 20
780.557581
 42
0.381798
  0
VERTEX
  8
0
 10
583.137688
 20
780.471022
 42
0.383256
  0
VERTEX
  8
0
 10
583.118266
 20
780.107788
 42
0.004741
  0
VERTEX
  8
0
 10
584.723967
 20
778.154499
 42
0.010963
  0
VERTEX
  8
0
 10
586.726857
 20
775.868340
 42
0.006608
  0
VERTEX
  8
0
 10
589.195499
 20
773.242701
 42
-0.039202
  0
VERTEX
  8
0
 10
595.659329
 20
765.402023
 42
-0.051006
  0
VERTEX
  8
0
 10
600.192705
 20
757.281308
 42
-0.049299
  0
VERTEX
  8
0
 10
603.092093
 20
748.189722
 42
-0.033382
  0
VERTEX
  8
0
 10
604.647947
 20
737.418638
 42
-0.020811
  0
VERTEX
  8
0
 10
604.957946
 20
728.590280
 42
-0.089725
  0
VERTEX
  8
0
 10
603.993098
 20
723.448361
 42
-0.570741
  0
VERTEX
  8
0
 10
602.357837
 20
723.169199
 42
-0.104255
  0
VERTEX
  8
0
 10
600.514735
 20
726.584530
 42
0.064655
  0
VERTEX
  8
0
 10
597.532042
 20
733.331667
 42
0.027255
  0
VERTEX
  8
0
 10
591.925494
 20
741.529092
 42
0.027211
  0
VERTEX
  8
0
 10
585.198080
 20
749.375447
 42
0.044267
  0
VERTEX
  8
0
 10
578.599962
 20
755.152439
 42
0.013096
  0
VERTEX
  8
0
 10
575.429955
 20
757.342057
 42
0.128554
  0
VERTEX
  8
0
 10
573.902085
 20
757.852759
 42
0.415826
  0
VERTEX
  8
0
 10
573.246304
 20
757.276116
 42
0.076971
  0
VERTEX
  8
0
 10
573.410644
 20
755.500000
 42
-0.030958
  0
VERTEX
  8
0
 10
573.589012
 20
754.541621
 42
-0.053988
  0
VERTEX
  8
0
 10
573.600510
 20
753.734375
 42
-0.079442
  0
VERTEX
  8
0
 10
573.459100
 20
753.185569
 42
-0.298430
  0
VERTEX
  8
0
 10
573.175881
 20
753.000000
 42
-0.136150
  0
VERTEX
  8
0
 10
572.606618
 20
753.157938
 42
-0.004267
  0
VERTEX
  8
0
 10
570.529052
 20
754.431150
 42
-0.008031
  0
VERTEX
  8
0
 10
568.097005
 20
756.005161
 42
-0.005447
  0
VERTEX
  8
0
 10
565.376182
 20
757.872000
 42
0.008309
  0
VERTEX
  8
0
 10
562.338038
 20
759.931078
 42
0.006311
  0
VERTEX
  8
0
 10
558.942721
 20
762.090119
 42
0.006385
  0
VERTEX
  8
0
 10
555.705493
 20
764.035005
 42
0.014802
  0
VERTEX
  8
0
 10
553.217026
 20
765.390025
 42
0.055312
  0
VERTEX
  8
0
 10
541.535485
 20
769.767149
 42
0.007307
  0
VERTEX
  8
0
 10
515.782618
 20
775.889049
 42
0.002466
  0
VERTEX
  8
0
 10
487.968326
 20
781.929173
 42
0.476812
  0
VERTEX
  8
0
 10
486.000000
 20
780.334385
 42
0.239910
  0
VERTEX
  8
0
 10
486.546051
 20
779.261853
 42
0.033722
  0
VERTEX
  8
0
 10
488.714369
 20
777.897772
 42
0.022366
  0
VERTEX
  8
0
 10
492.378254
 20
776.130633
 42
0.005346
  0
VERTEX
  8
0
 10
498.621899
 20
773.535040
 42
-0.017228
  0
VERTEX
  8
0
 10
506.363086
 20
770.098970
 42
-0.019193
  0
VERTEX
  8
0
 10
513.569209
 20
766.249960
 42
-0.020405
  0
VERTEX
  8
0
 10
519.999742
 20
762.130338
 42
-0.027938
  0
VERTEX
  8
0
 10
525.402587
 20
757.881220
 42
-0.022916
  0
VERTEX
  8
0
 10
528.978574
 20
754.426750
 42
-0.018465
  0
VERTEX
  8
0
 10
532.502297
 20
750.408578
 42
-0.013411
  0
VERTEX
  8
0
 10
535.430756
 20
746.605445
 42
-0.158653
  0
VERTEX
  8
0
 10
536.000000
 20
744.856613
 42
-0.556355
  0
VERTEX
  8
0
 10
535.743907
 20
744.697700
 42
-0.011281
  0
VERTEX
  8
0
 10
534.117660
 20
745.549726
 42
-0.015372
  0
VERTEX
  8
0
 10
532.050603
 20
746.777300
 42
-0.008422
  0
VERTEX
  8
0
 10
529.592035
 20
748.400368
 42
0.025712
  0
VERTEX
  8
0
 10
524.222814
 20
751.684295
 42
0.024700
  0
VERTEX
  8
0
 10
518.473735
 20
754.448078
 42
0.024969
  0
VERTEX
  8
0
 10
512.547148
 20
756.603397
 42
0.027870
  0
VERTEX
  8
0
 10
506.647144
 20
758.066918
 42
0.076092
  0
VERTEX
  8
0
 10
492.145593
 20
758.582371
 42
0.070535
  0
VERTEX
  8
0
 10
477.746256
 20
754.795018
 42
0.071637
  0
VERTEX
  8
0
 10
465.164354
 20
747.234845
 42
0.083153
  0
VERTEX
  8
0
 10
455.956170
 20
736.752497
 42
-0.000510
  0
VERTEX
  8
0
 10
454.532038
 20
734.460017
 42
-0.000371
  0
VERTEX
  8
0
 10
452.942678
 20
731.911589
 42
-0.000374
  0
VERTEX
  8
0
 10
451.430695
 20
729.495253
 42
-0.000821
  0
VERTEX
  8
0
 10
450.269066
 20
727.648656
 42
0.000000
  0
VERTEX
  8
0
 10
447.837490
 20
723.797311
 42
0.000000
  0
VERTEX
  8
0
 10
445.787744
 20
725.997455
 42
0.218037
  0
VERTEX
  8
0
 10
441.992215
 20
727.563919
 42
0.119252
  0
VERTEX
  8
0
 10
437.050346
 20
726.167872
 42
0.049003
  0
VERTEX
  8
0
 10
429.711881
 20
721.031984
 42
0.008662
  0
VERTEX
  8
0
 10
417.131475
 20
709.866495
 42
-0.000797
  0
VERTEX
  8
0
 10
400.325590
 20
694.471473
 42
-0.005428
  0
VERTEX
  8
0
 10
391.935736
 20
686.975899
 42
-0.011027
  0
VERTEX
  8
0
 10
386.531001
 20
682.458066
 42
-0.024259
  0
VERTEX
  8
0
 10
382.167095
 20
679.304990
 42
0.010392
  0
VERTEX
  8
0
 10
380.158456
 20
677.936795
 42
0.017806
  0
VERTEX
  8
0
 10
378.550178
 20
676.703081
 42
0.012440
  0
VERTEX
  8
0
 10
377.350669
 20
675.661923
 42
0.427656
  0
VERTEX
  8
0
 10
377.342944
 20
675.323723
 42
0.301979
  0
VERTEX
  8
0
 10
380.393363
 20
674.709006
 42
0.008216
  0
VERTEX
  8
0
 10
393.526450
 20
680.325445
 42
0.016072
  0
VERTEX
  8
0
 10
407.819582
 20
687.277296
 42
0.016798
  0
VERTEX
  8
0
 10
421.423327
 20
695.037825
 42
-0.002349
  0
VERTEX
  8
0
 10
425.802334
 20
697.706482
 42
-0.003686
  0
VERTEX
  8
0
 10
429.593931
 20
699.954861
 42
-0.001032
  0
VERTEX
  8
0
 10
432.907278
 20
701.877620
 42
-0.131691
  0
VERTEX
  8
0
 10
433.363869
 20
702.000000
 42
-0.553806
  0
VERTEX
  8
0
 10
433.843018
 20
701.234514
 42
-0.034146
  0
VERTEX
  8
0
 10
432.219793
 20
698.402845
 42
-0.014767
  0
VERTEX
  8
0
 10
428.528413
 20
693.213634
 42
-0.001895
  0
VERTEX
  8
0
 10
420.242442
 20
682.350751
 42
0.011619
  0
VERTEX
  8
0
 10
403.379847
 20
659.328986
 42
0.028653
  0
VERTEX
  8
0
 10
392.407766
 20
641.499395
 42
0.036372
  0
VERTEX
  8
0
 10
385.163983
 20
625.350322
 42
0.034269
  0
VERTEX
  8
0
 10
380.166754
 20
608.000000
 42
0.018104
  0
VERTEX
  8
0
 10
378.566591
 20
598.987213
 42
0.008319
  0
VERTEX
  8
0
 10
377.104474
 20
587.147469
 42
0.005926
  0
VERTEX
  8
0
 10
376.018714
 20
575.677528
 42
0.062989
  0
VERTEX
  8
0
 10
376.221303
 20
571.000000
 42
0.264275
  0
VERTEX
  8
0
 10
376.756127
 20
570.346462
 42
0.411037
  0
VERTEX
  8
0
 10
377.371886
 20
570.615366
 42
0.016950
  0
VERTEX
  8
0
 10
378.588574
 20
573.998943
 42
0.000452
  0
VERTEX
  8
0
 10
383.435695
 20
589.110543
 42
-0.014686
  0
VERTEX
  8
0
 10
388.594933
 20
603.748875
 42
-0.018046
  0
VERTEX
  8
0
 10
394.294432
 20
617.069021
 42
-0.019443
  0
VERTEX
  8
0
 10
400.492674
 20
628.995640
 42
-0.024824
  0
VERTEX
  8
0
 10
407.153562
 20
639.438045
 42
-0.029307
  0
VERTEX
  8
0
 10
415.963927
 20
650.421839
 42
-0.016903
  0
VERTEX
  8
0
 10
427.748041
 20
662.612707
 42
-0.007893
  0
VERTEX
  8
0
 10
439.682263
 20
673.792615
 42
-0.400105
  0
VERTEX
  8
0
 10
442.611634
 20
673.721699
 42
-0.322768
  0
VERTEX
  8
0
 10
442.944452
 20
671.672066
 42
-0.025217
  0
VERTEX
  8
0
 10
440.059819
 20
666.561585
 42
-0.019783
  0
VERTEX
  8
0
 10
434.871630
 20
659.040440
 42
-0.005153
  0
VERTEX
  8
0
 10
425.939055
 20
647.380602
 42
0.023083
  0
VERTEX
  8
0
 10
409.593225
 20
624.381074
 42
0.033649
  0
VERTEX
  8
0
 10
397.577683
 20
602.617141
 42
0.035760
  0
VERTEX
  8
0
 10
389.111470
 20
580.506402
 42
0.031662
  0
VERTEX
  8
0
 10
383.468107
 20
556.500000
 42
0.024920
  0
VERTEX
  8
0
 10
382.293847
 20
546.573805
 42
0.013650
  0
VERTEX
  8
0
 10
381.796297
 20
534.332719
 42
0.013477
  0
VERTEX
  8
0
 10
381.957974
 20
522.469855
 42
0.035209
  0
VERTEX
  8
0
 10
382.901752
 20
514.000000
 42
0.026088
  0
VERTEX
  8
0
 10
385.049640
 20
504.970054
 42
0.018640
  0
VERTEX
  8
0
 10
388.346946
 20
495.117960
 42
0.013036
  0
VERTEX
  8
0
 10
391.776629
 20
486.685960
 42
0.614479
  0
VERTEX
  8
0
 10
393.220997
 20
486.604378
 42
0.163328
  0
VERTEX
  8
0
 10
393.357056
 20
487.270693
 42
0.006659
  0
VERTEX
  8
0
 10
393.020782
 20
489.733786
 42
0.011023
  0
VERTEX
  8
0
 10
392.512182
 20
492.678145
 42
0.007530
  0
VERTEX
  8
0
 10
391.810562
 20
496.000000
 42
-0.020453
  0
VERTEX
  8
0
 10
390.909461
 20
500.887696
 42
-0.012032
  0
VERTEX
  8
0
 10
390.213638
 20
506.789870
 42
-0.010002
  0
VERTEX
  8
0
 10
389.692212
 20
513.892190
 42
-0.005686
  0
VERTEX
  8
0
 10
389.331248
 20
522.500000
 42
-0.004855
  0
VERTEX
  8
0
 10
389.120516
 20
532.616815
 42
-0.015238
  0
VERTEX
  8
0
 10
389.252079
 20
539.412111
 42
-0.018765
  0
VERTEX
  8
0
 10
389.775756
 20
545.391366
 42
-0.011000
  0
VERTEX
  8
0
 10
390.827475
 20
552.500000
 42
-0.014302
  0
VERTEX
  8
0
 10
392.990318
 20
563.309226
 42
-0.019240
  0
VERTEX
  8
0
 10
395.600395
 20
572.943627
 42
-0.019841
  0
VERTEX
  8
0
 10
398.870802
 20
582.109731
 42
-0.016906
  0
VERTEX
  8
0
 10
403.021499
 20
591.500000
 42
-0.031565
  0
VERTEX
  8
0
 10
412.276608
 20
607.925603
 42
-0.043772
  0
VERTEX
  8
0
 10
422.682208
 20
621.230765
 42
-0.032046
  0
VERTEX
  8
0
 10
437.548171
 20
635.234047
 42
-0.009237
  0
VERTEX
  8
0
 10
462.250000
 20
654.924326
 42
0.004170
  0
VERTEX
  8
0
 10
469.757676
 20
660.785386
 42
0.018961
  0
VERTEX
  8
0
 10
473.965999
 20
664.395999
 42
0.029358
  0
VERTEX
  8
0
 10
476.385073
 20
666.915439
 42
0.178454
  0
VERTEX
  8
0
 10
477.000000
 20
668.583500
 42
0.117681
  0
VERTEX
  8
0
 10
476.682299
 20
669.914647
 42
0.026225
  0
VERTEX
  8
0
 10
475.510257
 20
671.956892
 42
0.023852
  0
VERTEX
  8
0
 10
473.773533
 20
674.383738
 42
0.014926
  0
VERTEX
  8
0
 10
471.526175
 20
677.059028
 42
-0.042763
  0
VERTEX
  8
0
 10
465.297179
 20
685.371966
 42
-0.058366
  0
VERTEX
  8
0
 10
461.305052
 20
693.830088
 42
-0.062990
  0
VERTEX
  8
0
 10
459.571038
 20
702.447381
 42
-0.062850
  0
VERTEX
  8
0
 10
460.035072
 20
711.231764
 42
-0.062373
  0
VERTEX
  8
0
 10
462.799326
 20
720.077027
 42
-0.059435
  0
VERTEX
  8
0
 10
467.692223
 20
728.125832
 42
-0.058107
  0
VERTEX
  8
0
 10
474.459194
 20
734.952273
 42
-0.054804
  0
VERTEX
  8
0
 10
482.743375
 20
740.194545
 42
-0.017776
  0
VERTEX
  8
0
 10
487.138040
 20
742.152588
 42
-0.053572
  0
VERTEX
  8
0
 10
490.290007
 20
743.047215
 42
-0.037092
  0
VERTEX
  8
0
 10
494.128563
 20
743.414393
 42
-0.005280
  0
VERTEX
  8
0
 10
502.048538
 20
743.498789
 42
0.000000
  0
VERTEX
  8
0
 10
514.597076
 20
743.500000
 42
0.000000
  0
VERTEX
  8
0
 10
522.421659
 20
739.634525
 42
-0.032719
  0
VERTEX
  8
0
 10
528.731447
 20
735.985974
 42
-0.032860
  0
VERTEX
  8
0
 10
534.501759
 20
731.550233
 42
-0.031919
  0
VERTEX
  8
0
 10
538.863916
 20
727.192544
 42
-0.182510
  0
VERTEX
  8
0
 10
540.000000
 20
724.183838
 42
-0.028511
  0
VERTEX
  8
0
 10
539.952248
 20
723.347108
 42
-0.044650
  0
VERTEX
  8
0
 10
539.806822
 20
722.641502
 42
-0.055811
  0
VERTEX
  8
0
 10
539.595674
 20
722.147613
 42
-0.270118
  0
VERTEX
  8
0
 10
539.342371
 20
722.000000
 42
-0.146484
  0
VERTEX
  8
0
 10
538.913137
 20
722.128509
 42
-0.004534
  0
VERTEX
  8
0
 10
537.366948
 20
723.165708
 42
-0.008532
  0
VERTEX
  8
0
 10
535.559693
 20
724.447751
 42
-0.005763
  0
VERTEX
  8
0
 10
533.541003
 20
725.968366
 42
0.028835
  0
VERTEX
  8
0
 10
528.180217
 20
729.631651
 42
0.040595
  0
VERTEX
  8
0
 10
522.995813
 20
732.204540
 42
0.041971
  0
VERTEX
  8
0
 10
517.602088
 20
733.847184
 42
0.034074
  0
VERTEX
  8
0
 10
511.617627
 20
734.712557
 42
0.074650
  0
VERTEX
  8
0
 10
499.582960
 20
733.825962
 42
0.072745
  0
VERTEX
  8
0
 10
488.223484
 20
729.448826
 42
0.073197
  0
VERTEX
  8
0
 10
478.652175
 20
722.033305
 42
0.077161
  0
VERTEX
  8
0
 10
471.824692
 20
712.295462
 42
0.048150
  0
VERTEX
  8
0
 10
469.291770
 20
705.591424
 42
0.064992
  0
VERTEX
  8
0
 10
468.418831
 20
699.174838
 42
0.064894
  0
VERTEX
  8
0
 10
469.221905
 20
692.741803
 42
0.047825
  0
VERTEX
  8
0
 10
471.682276
 20
685.988539
 42
0.024619
  0
VERTEX
  8
0
 10
474.344845
 20
681.046612
 42
0.027442
  0
VERTEX
  8
0
 10
477.393850
 20
676.573387
 42
0.023028
  0
VERTEX
  8
0
 10
480.228136
 20
673.202911
 42
0.422931
  0
VERTEX
  8
0
 10
481.490076
 20
673.170956
 42
0.253029
  0
VERTEX
  8
0
 10
481.662380
 20
673.727529
 42
0.009414
  0
VERTEX
  8
0
 10
481.179948
 20
675.944600
 42
0.015057
  0
VERTEX
  8
0
 10
480.458544
 20
678.621932
 42
0.009785
  0
VERTEX
  8
0
 10
479.472170
 20
681.670956
 42
-0.035831
  0
VERTEX
  8
0
 10
477.677212
 20
688.396282
 42
-0.056377
  0
VERTEX
  8
0
 10
477.220534
 20
694.350440
 42
-0.060155
  0
VERTEX
  8
0
 10
478.106017
 20
699.971271
 42
-0.048189
  0
VERTEX
  8
0
 10
480.339014
 20
705.682310
 42
-0.102056
  0
VERTEX
  8
0
 10
487.070907
 20
714.137125
 42
-0.093315
  0
VERTEX
  8
0
 10
496.804602
 20
719.567269
 42
-0.090942
  0
VERTEX
  8
0
 10
508.071933
 20
721.171049
 42
-0.090894
  0
VERTEX
  8
0
 10
519.177346
 20
718.672656
 42
-0.051538
  0
VERTEX
  8
0
 10
522.589468
 20
716.783892
 42
-0.075157
  0
VERTEX
  8
0
 10
525.079840
 20
714.423651
 42
-0.087362
  0
VERTEX
  8
0
 10
526.508035
 20
711.732510
 42
-0.102677
  0
VERTEX
  8
0
 10
526.821519
 20
708.867609
 42
-0.080780
  0
VERTEX
  8
0
 10
526.155524
 20
706.332034
 42
-0.263054
  0
VERTEX
  8
0
 10
524.810901
 20
705.334506
 42
-0.166707
  0
VERTEX
  8
0
 10
522.718975
 20
705.772853
 42
-0.033656
  0
VERTEX
  8
0
 10
519.547447
 20
707.962294
 42
0.011461
  0
VERTEX
  8
0
 10
518.012537
 20
709.125706
 42
0.015226
  0
VERTEX
  8
0
 10
516.562341
 20
710.107674
 42
0.012502
  0
VERTEX
  8
0
 10
515.323510
 20
710.849857
 42
0.129404
  0
VERTEX
  8
0
 10
514.753089
 20
711.000000
 42
0.409150
  0
VERTEX
  8
0
 10
514.138783
 20
710.396240
 42
0.032933
  0
VERTEX
  8
0
 10
514.259949
 20
707.901205
 42
0.028003
  0
VERTEX
  8
0
 10
514.869653
 20
704.356970
 42
0.013021
  0
VERTEX
  8
0
 10
516.035414
 20
699.836616
 42
-0.124562
  0
VERTEX
  8
0
 10
516.262357
 20
692.418704
 42
-0.082589
  0
VERTEX
  8
0
 10
513.070715
 20
684.475591
 42
-0.046400
  0
VERTEX
  8
0
 10
505.559856
 20
674.379410
 42
-0.011323
  0
VERTEX
  8
0
 10
491.329493
 20
659.255974
 42
0.015321
  0
VERTEX
  8
0
 10
465.286772
 20
631.131707
 42
0.038819
  0
VERTEX
  8
0
 10
448.690211
 20
608.782527
 42
0.049444
  0
VERTEX
  8
0
 10
438.167447
 20
587.668227
 42
0.043642
  0
VERTEX
  8
0
 10
431.456027
 20
564.000000
 42
0.032867
  0
VERTEX
  8
0
 10
430.072848
 20
552.845415
 42
0.013933
  0
VERTEX
  8
0
 10
429.623570
 20
537.771932
 42
0.013885
  0
VERTEX
  8
0
 10
430.033543
 20
521.907329
 42
0.020311
  0
VERTEX
  8
0
 10
431.347796
 20
508.000000
 42
0.021535
  0
VERTEX
  8
0
 10
437.782714
 20
472.210718
 42
0.044032
  0
VERTEX
  8
0
 10
446.449680
 20
445.057830
 42
0.053585
  0
VERTEX
  8
0
 10
458.346168
 20
423.489269
 42
0.053981
  0
VERTEX
  8
0
 10
474.528864
 20
405.000000
 42
0.000000
  0
VERTEX
  8
0
 10
478.331586
 20
401.500000
 42
0.000000
  0
VERTEX
  8
0
 10
473.869014
 20
407.500000
 42
-0.050022
  0
VERTEX
  8
0
 10
459.123649
 20
432.124869
 42
-0.070020
  0
VERTEX
  8
0
 10
451.560583
 20
456.594581
 42
-0.073999
  0
VERTEX
  8
0
 10
451.260442
 20
481.144355
 42
-0.064312
  0
VERTEX
  8
0
 10
457.977833
 20
506.000000
 42
-0.018492
  0
VERTEX
  8
0
 10
460.858564
 20
512.291614
 42
-0.011068
  0
VERTEX
  8
0
 10
464.718743
 20
519.555048
 42
-0.003627
  0
VERTEX
  8
0
 10
468.748271
 20
526.627454
 42
-0.492667
  0
VERTEX
  8
0
 10
469.595060
 20
526.738273
 42
-0.239898
  0
VERTEX
  8
0
 10
469.719552
 20
526.355572
 42
-0.001636
  0
VERTEX
  8
0
 10
469.152192
 20
522.832412
 42
-0.005847
  0
VERTEX
  8
0
 10
468.435302
 20
518.769092
 42
-0.003648
  0
VERTEX
  8
0
 10
467.504932
 20
514.024216
 42
0.019519
  0
VERTEX
  8
0
 10
465.586799
 20
502.279061
 42
0.032077
  0
VERTEX
  8
0
 10
464.996064
 20
492.230163
 42
0.035093
  0
VERTEX
  8
0
 10
465.556486
 20
484.828430
 42
0.372147
  0
VERTEX
  8
0
 10
467.672862
 20
483.000000
 42
0.277703
  0
VERTEX
  8
0
 10
469.429726
 20
484.057313
 42
0.031359
  0
VERTEX
  8
0
 10
471.426523
 20
488.474157
 42
0.031429
  0
VERTEX
  8
0
 10
473.256628
 20
494.410297
 42
0.021985
  0
VERTEX
  8
0
 10
474.594786
 20
501.284777
 42
-0.019786
  0
VERTEX
  8
0
 10
475.981616
 20
508.580203
 42
-0.026729
  0
VERTEX
  8
0
 10
477.842705
 20
515.031281
 42
-0.023961
  0
VERTEX
  8
0
 10
480.547240
 20
521.759070
 42
-0.012066
  0
VERTEX
  8
0
 10
484.562828
 20
529.982159
 42
-0.011443
  0
VERTEX
  8
0
 10
488.043770
 20
536.334559
 42
-0.026785
  0
VERTEX
  8
0
 10
491.000964
 20
540.870639
 42
-0.032360
  0
VERTEX
  8
0
 10
493.366880
 20
543.702556
 42
-0.420287
  0
VERTEX
  8
0
 10
494.606656
 20
543.720374
 42
-0.248176
  0
VERTEX
  8
0
 10
494.825507
 20
543.020092
 42
-0.003036
  0
VERTEX
  8
0
 10
493.903953
 20
538.220387
 42
-0.008141
  0
VERTEX
  8
0
 10
492.695428
 20
532.606733
 42
-0.005133
  0
VERTEX
  8
0
 10
491.110828
 20
526.091809
 42
0.004837
  0
VERTEX
  8
0
 10
489.495011
 20
519.465610
 42
0.006723
  0
VERTEX
  8
0
 10
488.185380
 20
513.498955
 42
0.004336
  0
VERTEX
  8
0
 10
487.199770
 20
508.480994
 42
0.081798
  0
VERTEX
  8
0
 10
487.164536
 20
506.882732
 42
0.094211
  0
VERTEX
  8
0
 10
487.499465
 20
505.901897
 42
0.456278
  0
VERTEX
  8
0
 10
488.005649
 20
505.800476
 42
0.080583
  0
VERTEX
  8
0
 10
488.854046
 20
506.708259
 42
0.005318
  0
VERTEX
  8
0
 10
490.823001
 20
509.712606
 42
0.039644
  0
VERTEX
  8
0
 10
496.706353
 20
520.735914
 42
0.009891
  0
VERTEX
  8
0
 10
504.499226
 20
539.628031
 42
0.010188
  0
VERTEX
  8
0
 10
511.575800
 20
558.949996
 42
0.034124
  0
VERTEX
  8
0
 10
515.073646
 20
571.968806
 42
-0.011783
  0
VERTEX
  8
0
 10
516.036179
 20
576.317586
 42
-0.095312
  0
VERTEX
  8
0
 10
516.886703
 20
578.165094
 42
-0.515246
  0
VERTEX
  8
0
 10
517.664750
 20
578.163358
 42
-0.093047
  0
VERTEX
  8
0
 10
518.386782
 20
576.595072
 42
-0.118566
  0
VERTEX
  8
0
 10
518.452100
 20
569.980323
 42
-0.021808
  0
VERTEX
  8
0
 10
515.175041
 20
558.128601
 42
-0.020393
  0
VERTEX
  8
0
 10
509.692663
 20
543.301017
 42
-0.011934
  0
VERTEX
  8
0
 10
501.991402
 20
526.000000
 42
0.016793
  0
VERTEX
  8
0
 10
493.127113
 20
505.553774
 42
0.024416
  0
VERTEX
  8
0
 10
486.819761
 20
486.937925
 42
0.028118
  0
VERTEX
  8
0
 10
483.111126
 20
470.479554
 42
0.050250
  0
VERTEX
  8
0
 10
482.211138
 20
456.652215
 42
0.005747
  0
VERTEX
  8
0
 10
482.440813
 20
451.760019
 42
0.055951
  0
VERTEX
  8
0
 10
482.791372
 20
449.720162
 42
0.155639
  0
VERTEX
  8
0
 10
483.473189
 20
448.703560
 42
0.133205
  0
VERTEX
  8
0
 10
484.662038
 20
448.191976
 42
0.116123
  0
VERTEX
  8
0
 10
485.848909
 20
448.298718
 42
0.086445
  0
VERTEX
  8
0
 10
487.011306
 20
448.923763
 42
0.056419
  0
VERTEX
  8
0
 10
488.279017
 20
450.174222
 42
0.019225
  0
VERTEX
  8
0
 10
489.827646
 20
452.249493
 42
-0.015167
  0
VERTEX
  8
0
 10
492.177647
 20
455.452548
 42
-0.035369
  0
VERTEX
  8
0
 10
494.169122
 20
457.659981
 42
-0.084888
  0
VERTEX
  8
0
 10
495.458768
 20
458.536055
 42
-0.545697
  0
VERTEX
  8
0
 10
496.000000
 20
458.187821
 42
-0.042042
  0
VERTEX
  8
0
 10
495.940896
 20
457.486147
 42
-0.002639
  0
VERTEX
  8
0
 10
495.582479
 20
455.439249
 42
-0.003877
  0
VERTEX
  8
0
 10
495.123078
 20
453.002949
 42
-0.002868
  0
VERTEX
  8
0
 10
494.578652
 20
450.315376
 42
0.027648
  0
VERTEX
  8
0
 10
492.670860
 20
437.719676
 42
0.036828
  0
VERTEX
  8
0
 10
492.423064
 20
426.151220
 42
0.037702
  0
VERTEX
  8
0
 10
493.867657
 20
414.889141
 42
0.031237
  0
VERTEX
  8
0
 10
497.039564
 20
403.219509
 42
0.035479
  0
VERTEX
  8
0
 10
502.053012
 20
391.321152
 42
0.032512
  0
VERTEX
  8
0
 10
508.827770
 20
379.882378
 42
0.026932
  0
VERTEX
  8
0
 10
518.190130
 20
367.657435
 42
0.013584
  0
VERTEX
  8
0
 10
531.209199
 20
353.243031
 42
-0.002778
  0
VERTEX
  8
0
 10
543.545382
 20
340.164312
 42
-0.007476
  0
VERTEX
  8
0
 10
552.124028
 20
330.687253
 42
-0.010360
  0
VERTEX
  8
0
 10
558.320990
 20
323.330107
 42
-0.020688
  0
VERTEX
  8
0
 10
562.851474
 20
317.218714
 42
0.008495
  0
VERTEX
  8
0
 10
565.969993
 20
312.790289
 42
0.051225
  0
VERTEX
  8
0
 10
567.849390
 20
310.702397
 42
0.545205
  0
VERTEX
  8
0
 10
568.474128
 20
310.870441
 42
0.153531
  0
VERTEX
  8
0
 10
568.480449
 20
312.124771
 42
0.062554
  0
VERTEX
  8
0
 10
564.898034
 20
320.048911
 42
0.019815
  0
VERTEX
  8
0
 10
557.674757
 20
330.856733
 42
0.017597
  0
VERTEX
  8
0
 10
547.831619
 20
343.435962
 42
0.011618
  0
VERTEX
  8
0
 10
535.691629
 20
357.210693
 42
-0.030342
  0
VERTEX
  8
0
 10
519.581253
 20
376.931692
 42
-0.080691
  0
VERTEX
  8
0
 10
511.479895
 20
393.149696
 42
-0.086977
  0
VERTEX
  8
0
 10
509.252434
 20
410.358669
 42
-0.039338
  0
VERTEX
  8
0
 10
512.061369
 20
433.000000
 42
-0.004296
  0
VERTEX
  8
0
 10
513.966194
 20
441.908098
 42
-0.072976
  0
VERTEX
  8
0
 10
515.033816
 20
444.702505
 42
-0.734710
  0
VERTEX
  8
0
 10
515.747886
 20
444.552449
 42
-0.022424
  0
VERTEX
  8
0
 10
515.982729
 20
440.000000
 42
0.044887
  0
VERTEX
  8
0
 10
517.110815
 20
428.335615
 42
0.033383
  0
VERTEX
  8
0
 10
520.349405
 20
415.802263
 42
0.032623
  0
VERTEX
  8
0
 10
525.345949
 20
403.465871
 42
0.036677
  0
VERTEX
  8
0
 10
531.742398
 20
392.381167
 42
0.012452
  0
VERTEX
  8
0
 10
535.827875
 20
386.677796
 42
0.013600
  0
VERTEX
  8
0
 10
540.077935
 20
381.353879
 42
0.009884
  0
VERTEX
  8
0
 10
545.624806
 20
375.038044
 42
0.003115
  0
VERTEX
  8
0
 10
554.159230
 20
365.815483
 42
-0.015924
  0
VERTEX
  8
0
 10
569.839053
 20
347.975748
 42
-0.038530
  0
VERTEX
  8
0
 10
579.917872
 20
333.622015
 42
-0.047677
  0
VERTEX
  8
0
 10
586.373143
 20
319.905924
 42
-0.040026
  0
VERTEX
  8
0
 10
590.577377
 20
304.388898
 42
0.004985
  0
VERTEX
  8
0
 10
592.758299
 20
293.320773
 42
0.051934
  0
VERTEX
  8
0
 10
594.162697
 20
288.910699
 42
0.570163
  0
VERTEX
  8
0
 10
595.303473
 20
288.770435
 42
0.115347
  0
VERTEX
  8
0
 10
596.375000
 20
291.125000
 42
0.045477
  0
VERTEX
  8
0
 10
596.947988
 20
296.484639
 42
0.007313
  0
VERTEX
  8
0
 10
596.958360
 20
307.008090
 42
0.008685
  0
VERTEX
  8
0
 10
596.617280
 20
318.003587
 42
0.018364
  0
VERTEX
  8
0
 10
595.892445
 20
326.500000
 42
0.045833
  0
VERTEX
  8
0
 10
593.144563
 20
339.178740
 42
0.056636
  0
VERTEX
  8
0
 10
588.238658
 20
350.218273
 42
0.042722
  0
VERTEX
  8
0
 10
579.854702
 20
362.043698
 42
0.014562
  0
VERTEX
  8
0
 10
565.788759
 20
377.722091
 42
-0.007528
  0
VERTEX
  8
0
 10
560.078766
 20
383.909302
 42
-0.006864
  0
VERTEX
  8
0
 10
554.376161
 20
390.456955
 42
-0.006882
  0
VERTEX
  8
0
 10
549.441023
 20
396.448287
 42
-0.022044
  0
VERTEX
  8
0
 10
546.388196
 20
400.624877
 42
-0.056223
  0
VERTEX
  8
0
 10
536.521585
 20
419.820807
 42
-0.072566
  0
VERTEX
  8
0
 10
532.248421
 20
439.149977
 42
-0.073250
  0
VERTEX
  8
0
 10
533.692590
 20
458.751342
 42
-0.058662
  0
VERTEX
  8
0
 10
540.698838
 20
478.750000
 42
-0.009175
  0
VERTEX
  8
0
 10
542.119083
 20
481.528622
 42
-0.014165
  0
VERTEX
  8
0
 10
543.457333
 20
483.870313
 42
-0.008442
  0
VERTEX
  8
0
 10
544.643005
 20
485.743114
 42
-0.252550
  0
VERTEX
  8
0
 10
545.119151
 20
486.000000
 42
-0.318092
  0
VERTEX
  8
0
 10
545.730433
 20
485.567334
 42
-0.103862
  0
VERTEX
  8
0
 10
545.884039
 20
484.409793
 42
-0.035473
  0
VERTEX
  8
0
 10
545.548707
 20
482.128842
 42
-0.005010
  0
VERTEX
  8
0
 10
544.479999
 20
477.500000
 42
0.047408
  0
VERTEX
  8
0
 10
543.151660
 20
468.220317
 42
0.023067
  0
VERTEX
  8
0
 10
543.135990
 20
456.237552
 42
0.014134
  0
VERTEX
  8
0
 10
543.969024
 20
444.859532
 42
0.384831
  0
VERTEX
  8
0
 10
546.027259
 20
443.000000
 42
0.233183
  0
VERTEX
  8
0
 10
546.589091
 20
443.277086
 42
0.003015
  0
VERTEX
  8
0
 10
549.032244
 20
446.501531
 42
0.007972
  0
VERTEX
  8
0
 10
551.817957
 20
450.350946
 42
0.005054
  0
VERTEX
  8
0
 10
554.946474
 20
454.920105
 42
-0.003813
  0
VERTEX
  8
0
 10
559.733663
 20
461.949108
 42
-0.017320
  0
VERTEX
  8
0
 10
562.692320
 20
465.921520
 42
-0.041489
  0
VERTEX
  8
0
 10
564.418089
 20
467.745519
 42
-0.648375
  0
VERTEX
  8
0
 10
565.000000
 20
467.485422
 42
-0.114188
  0
VERTEX
  8
0
 10
564.892015
 20
467.018746
 42
-0.000675
  0
VERTEX
  8
0
 10
562.930659
 20
463.021195
 42
-0.002780
  0
VERTEX
  8
0
 10
560.655774
 20
458.464537
 42
-0.001761
  0
VERTEX
  8
0
 10
557.955434
 20
453.176405
 42
0.007393
  0
VERTEX
  8
0
 10
554.726814
 20
446.673914
 42
0.014579
  0
VERTEX
  8
0
 10
552.391390
 20
441.400654
 42
0.018204
  0
VERTEX
  8
0
 10
550.816338
 20
437.103897
 42
0.039804
  0
VERTEX
  8
0
 10
549.999210
 20
433.696853
 42
0.080292
  0
VERTEX
  8
0
 10
550.046736
 20
422.935735
 42
0.065654
  0
VERTEX
  8
0
 10
553.405482
 20
411.913144
 42
0.054929
  0
VERTEX
  8
0
 10
560.211775
 20
400.471642
 42
0.032642
  0
VERTEX
  8
0
 10
570.582189
 20
388.446657
 42
0.011793
  0
VERTEX
  8
0
 10
577.036946
 20
382.183925
 42
0.009111
  0
VERTEX
  8
0
 10
584.352111
 20
375.657274
 42
0.003618
  0
VERTEX
  8
0
 10
591.469018
 20
369.625771
 42
0.175726
  0
VERTEX
  8
0
 10
593.194571
 20
369.000000
 42
0.368980
  0
VERTEX
  8
0
 10
593.867773
 20
369.575094
 42
0.090437
  0
VERTEX
  8
0
 10
593.830688
 20
371.151757
 42
0.042523
  0
VERTEX
  8
0
 10
593.041565
 20
373.806873
 42
0.012547
  0
VERTEX
  8
0
 10
591.391196
 20
377.721487
 42
-0.020196
  0
VERTEX
  8
0
 10
588.786483
 20
384.173706
 42
-0.030538
  0
VERTEX
  8
0
 10
587.100018
 20
389.989438
 42
-0.028731
  0
VERTEX
  8
0
 10
586.070253
 20
396.222159
 42
-0.015411
  0
VERTEX
  8
0
 10
585.482096
 20
404.000000
 42
0.000000
  0
VERTEX
  8
0
 10
585.012883
 20
414.500000
 42
0.000000
  0
VERTEX
  8
0
 10
586.513506
 20
406.655272
 42
0.029069
  0
VERTEX
  8
0
 10
589.572547
 20
394.530004
 42
0.024599
  0
VERTEX
  8
0
 10
594.161944
 20
382.128516
 42
0.023920
  0
VERTEX
  8
0
 10
600.104632
 20
369.871909
 42
0.023584
  0
VERTEX
  8
0
 10
607.216566
 20
358.179063
 42
-0.021806
  0
VERTEX
  8
0
 10
612.084340
 20
350.239574
 42
-0.017458
  0
VERTEX
  8
0
 10
616.640878
 20
341.302317
 42
-0.017702
  0
VERTEX
  8
0
 10
620.478003
 20
332.256275
 42
-0.025598
  0
VERTEX
  8
0
 10
623.164547
 20
324.000000
 42
-0.037471
  0
VERTEX
  8
0
 10
624.823068
 20
315.305716
 42
-0.024872
  0
VERTEX
  8
0
 10
625.471361
 20
305.166788
 42
-0.024728
  0
VERTEX
  8
0
 10
625.134203
 20
295.626521
 42
-0.069418
  0
VERTEX
  8
0
 10
623.657037
 20
289.124273
 42
0.013833
  0
VERTEX
  8
0
 10
622.437350
 20
285.613133
 42
0.068284
  0
VERTEX
  8
0
 10
622.083185
 20
283.553802
 42
0.181495
  0
VERTEX
  8
0
 10
622.452971
 20
282.456791
 42
0.225351
  0
VERTEX
  8
0
 10
623.415013
 20
282.000000
 42
0.205797
  0
VERTEX
  8
0
 10
625.559084
 20
282.921515
 42
0.021684
  0
VERTEX
  8
0
 10
629.217162
 20
287.129682
 42
0.025173
  0
VERTEX
  8
0
 10
633.114391
 20
292.566979
 42
0.021937
  0
VERTEX
  8
0
 10
636.641400
 20
298.618711
 42
0.059176
  0
VERTEX
  8
0
 10
642.393968
 20
313.645785
 42
0.051750
  0
VERTEX
  8
0
 10
644.809441
 20
330.305919
 42
0.047986
  0
VERTEX
  8
0
 10
643.813677
 20
348.286508
 42
0.038170
  0
VERTEX
  8
0
 10
639.426931
 20
367.233050
 42
-0.005148
  0
VERTEX
  8
0
 10
638.118040
 20
371.563388
 42
-0.007665
  0
VERTEX
  8
0
 10
637.070151
 20
375.380802
 42
-0.003845
  0
VERTEX
  8
0
 10
636.260541
 20
378.620560
 42
-0.140652
  0
VERTEX
  8
0
 10
636.292573
 20
379.377718
 42
-0.637037
  0
VERTEX
  8
0
 10
637.326999
 20
379.496815
 42
-0.005199
  0
VERTEX
  8
0
 10
642.818573
 20
370.348153
 42
-0.010546
  0
VERTEX
  8
0
 10
648.934782
 20
359.391251
 42
-0.008237
  0
VERTEX
  8
0
 10
655.125928
 20
347.250000
 42
0.003859
  0
VERTEX
  8
0
 10
658.234251
 20
341.020195
 42
0.006238
  0
VERTEX
  8
0
 10
660.985780
 20
335.773437
 42
0.001729
  0
VERTEX
  8
0
 10
663.434125
 20
331.280344
 42
0.273641
  0
VERTEX
  8
0
 10
663.908016
 20
331.000000
 42
0.403198
  0
VERTEX
  8
0
 10
665.311185
 20
332.351166
 42
0.017851
  0
VERTEX
  8
0
 10
665.326422
 20
339.754663
 42
0.024255
  0
VERTEX
  8
0
 10
664.600834
 20
348.568430
 42
0.022479
  0
VERTEX
  8
0
 10
663.016232
 20
357.500000
 42
0.014862
  0
VERTEX
  8
0
 10
661.058517
 20
365.158736
 42
0.010608
  0
VERTEX
  8
0
 10
658.433096
 20
373.610179
 42
0.010198
  0
VERTEX
  8
0
 10
655.310109
 20
382.360509
 42
0.010360
  0
VERTEX
  8
0
 10
651.848364
 20
390.929830
 42
-0.005520
  0
VERTEX
  8
0
 10
649.997800
 20
395.386082
 42
-0.008331
  0
VERTEX
  8
0
 10
648.494039
 20
399.310760
 42
-0.004028
  0
VERTEX
  8
0
 10
647.307733
 20
402.651822
 42
-0.165198
  0
VERTEX
  8
0
 10
647.303418
 20
403.410255
 42
-0.604654
  0
VERTEX
  8
0
 10
648.351817
 20
403.580926
 42
-0.017160
  0
VERTEX
  8
0
 10
651.653673
 20
398.858561
 42
-0.018780
  0
VERTEX
  8
0
 10
655.591453
 20
392.264139
 42
-0.012264
  0
VERTEX
  8
0
 10
659.654149
 20
384.388050
 42
-0.020835
  0
VERTEX
  8
0
 10
664.765168
 20
372.629825
 42
-0.033956
  0
VERTEX
  8
0
 10
667.984009
 20
362.242181
 42
-0.034814
  0
VERTEX
  8
0
 10
669.717430
 20
351.702303
 42
-0.023355
  0
VERTEX
  8
0
 10
670.287721
 20
339.500000
 42
-0.006773
  0
VERTEX
  8
0
 10
670.181058
 20
331.625965
 42
-0.020388
  0
VERTEX
  8
0
 10
669.816818
 20
326.266797
 42
-0.024282
  0
VERTEX
  8
0
 10
669.058943
 20
321.485056
 42
-0.013380
  0
VERTEX
  8
0
 10
667.694523
 20
315.722651
 42
-0.033181
  0
VERTEX
  8
0
 10
663.331206
 20
302.798479
 42
-0.030354
  0
VERTEX
  8
0
 10
657.185330
 20
290.160214
 42
-0.028647
  0
VERTEX
  8
0
 10
649.179066
 20
277.685469
 42
-0.023152
  0
VERTEX
  8
0
 10
639.242498
 20
265.250000
 42
0.010232
  0
VERTEX
  8
0
 10
637.221969
 20
262.851113
 42
0.019694
  0
VERTEX
  8
0
 10
635.721121
 20
260.835937
 42
0.020213
  0
VERTEX
  8
0
 10
634.772108
 20
259.323396
 42
0.576126
  0
VERTEX
  8
0
 10
634.959614
 20
259.000000
 42
0.106041
  0
VERTEX
  8
0
 10
635.708186
 20
259.160564
 42
0.008062
  0
VERTEX
  8
0
 10
637.591649
 20
260.044291
 42
0.010808
  0
VERTEX
  8
0
 10
639.818115
 20
261.193377
 42
0.008015
  0
VERTEX
  8
0
 10
642.229211
 20
262.555033
 42
0.058571
  0
VERTEX
  8
0
 10
661.527379
 20
277.138437
 42
0.058427
  0
VERTEX
  8
0
 10
676.935977
 20
295.810356
 42
0.057014
  0
VERTEX
  8
0
 10
687.900134
 20
317.978490
 42
0.051142
  0
VERTEX
  8
0
 10
694.077992
 20
342.876772
 42
0.031445
  0
VERTEX
  8
0
 10
694.811790
 20
352.247425
 42
0.012862
  0
VERTEX
  8
0
 10
694.678403
 20
365.019759
 42
0.012852
  0
VERTEX
  8
0
 10
693.889389
 20
377.756577
 42
0.031799
  0
VERTEX
  8
0
 10
692.481533
 20
387.000000
 42
0.007900
  0
VERTEX
  8
0
 10
691.692537
 20
390.361784
 42
0.004916
  0
VERTEX
  8
0
 10
690.666406
 20
394.279688
 42
0.004931
  0
VERTEX
  8
0
 10
689.577891
 20
398.125148
 42
0.008898
  0
VERTEX
  8
0
 10
688.599239
 20
401.250000
 42
-0.009178
  0
VERTEX
  8
0
 10
687.790022
 20
403.838910
 42
-0.015982
  0
VERTEX
  8
0
 10
687.227704
 20
406.017187
 42
-0.010478
  0
VERTEX
  8
0
 10
686.876807
 20
407.750750
 42
-0.467595
  0
VERTEX
  8
0
 10
687.085056
 20
408.000000
 42
-0.200416
  0
VERTEX
  8
0
 10
687.548487
 20
407.806468
 42
-0.003088
  0
VERTEX
  8
0
 10
689.611974
 20
405.693020
 42
-0.007705
  0
VERTEX
  8
0
 10
691.983686
 20
403.156594
 42
-0.004956
  0
VERTEX
  8
0
 10
694.658761
 20
400.146453
 42
-0.000032
  0
VERTEX
  8
0
 10
697.849077
 20
396.483582
 42
-0.000017
  0
VERTEX
  8
0
 10
701.829110
 20
391.913114
 42
-0.000017
  0
VERTEX
  8
0
 10
705.915317
 20
387.220087
 42
-0.000025
  0
VERTEX
  8
0
 10
709.461614
 20
383.146453
 42
0.004265
  0
VERTEX
  8
0
 10
712.566315
 20
379.640555
 42
0.006697
  0
VERTEX
  8
0
 10
715.299928
 20
376.686770
 42
0.002350
  0
VERTEX
  8
0
 10
717.687606
 20
374.198640
 42
0.203048
  0
VERTEX
  8
0
 10
718.156585
 20
374.000000
 42
0.537150
  0
VERTEX
  8
0
 10
718.551075
 20
374.595670
 42
0.005053
  0
VERTEX
  8
0
 10
716.062108
 20
380.306561
 42
0.008889
  0
VERTEX
  8
0
 10
712.442101
 20
388.018163
 42
0.003017
  0
VERTEX
  8
0
 10
706.912670
 20
399.103279
 42
-0.003105
  0
VERTEX
  8
0
 10
702.766486
 20
407.418985
 42
-0.018725
  0
VERTEX
  8
0
 10
700.804247
 20
411.826370
 42
-0.037314
  0
VERTEX
  8
0
 10
700.009883
 20
414.333569
 42
-0.483990
  0
VERTEX
  8
0
 10
700.537087
 20
415.000000
 42
-0.143796
  0
VERTEX
  8
0
 10
700.909695
 20
414.890578
 42
-0.001805
  0
VERTEX
  8
0
 10
703.007829
 20
413.531250
 42
-0.005126
  0
VERTEX
  8
0
 10
705.426264
 20
411.916379
 42
-0.003314
  0
VERTEX
  8
0
 10
708.193916
 20
410.000000
 42
0.010937
  0
VERTEX
  8
0
 10
712.611091
 20
407.040041
 42
0.039785
  0
VERTEX
  8
0
 10
715.590539
 20
405.454753
 42
0.098796
  0
VERTEX
  8
0
 10
717.319854
 20
405.081649
 42
0.423837
  0
VERTEX
  8
0
 10
717.987099
 20
405.750000
 42
0.062647
  0
VERTEX
  8
0
 10
717.912703
 20
406.269168
 42
0.002295
  0
VERTEX
  8
0
 10
717.377119
 20
408.189063
 42
0.004157
  0
VERTEX
  8
0
 10
716.713317
 20
410.455177
 42
0.002903
  0
VERTEX
  8
0
 10
715.928689
 20
413.000000
 42
-0.013355
  0
VERTEX
  8
0
 10
713.892389
 20
420.130455
 42
-0.015099
  0
VERTEX
  8
0
 10
712.330210
 20
427.074911
 42
-0.016323
  0
VERTEX
  8
0
 10
711.330181
 20
433.334040
 42
-0.032993
  0
VERTEX
  8
0
 10
711.031803
 20
438.315376
 42
-0.004420
  0
VERTEX
  8
0
 10
711.079789
 20
441.519562
 42
-0.103090
  0
VERTEX
  8
0
 10
711.285529
 20
442.401149
 42
-0.508972
  0
VERTEX
  8
0
 10
711.695529
 20
442.481904
 42
-0.044066
  0
VERTEX
  8
0
 10
712.535550
 20
441.553747
 42
0.041767
  0
VERTEX
  8
0
 10
713.203828
 20
440.808504
 42
0.089007
  0
VERTEX
  8
0
 10
713.849469
 20
440.386643
 42
0.135230
  0
VERTEX
  8
0
 10
714.422451
 20
440.310343
 42
0.172229
  0
VERTEX
  8
0
 10
714.892790
 20
440.553747
 42
0.164912
  0
VERTEX
  8
0
 10
715.261974
 20
441.368938
 42
0.003580
  0
VERTEX
  8
0
 10
715.664958
 20
445.775163
 42
0.007805
  0
VERTEX
  8
0
 10
716.022487
 20
450.991367
 42
0.005142
  0
VERTEX
  8
0
 10
716.278262
 20
457.000000
 42
-0.005675
  0
VERTEX
  8
0
 10
716.601577
 20
464.409478
 42
-0.013342
  0
VERTEX
  8
0
 10
717.053094
 20
469.927824
 42
-0.017511
  0
VERTEX
  8
0
 10
717.651146
 20
474.071498
 42
-0.044512
  0
VERTEX
  8
0
 10
718.453195
 20
477.000000
 42
0.044269
  0
VERTEX
  8
0
 10
719.231965
 20
479.838111
 42
0.012780
  0
VERTEX
  8
0
 10
719.929119
 20
484.336129
 42
0.011123
  0
VERTEX
  8
0
 10
720.538533
 20
490.065646
 42
0.006373
  0
VERTEX
  8
0
 10
721.031529
 20
497.000000
 42
-0.009728
  0
VERTEX
  8
0
 10
722.495864
 20
515.811949
 42
-0.060146
  0
VERTEX
  8
0
 10
724.582705
 20
525.264441
 42
-0.080093
  0
VERTEX
  8
0
 10
728.639290
 20
532.738258
 42
-0.024380
  0
VERTEX
  8
0
 10
737.019964
 20
542.570364
 42
0.023081
  0
VERTEX
  8
0
 10
745.367850
 20
552.312640
 42
0.106303
  0
VERTEX
  8
0
 10
748.585496
 20
558.965090
 42
0.147040
  0
VERTEX
  8
0
 10
748.253167
 20
565.195134
 42
0.059015
  0
VERTEX
  8
0
 10
744.401862
 20
572.906890
 42
0.047480
  0
VERTEX
  8
0
 10
737.328201
 20
581.727006
 42
0.006388
  0
VERTEX
  8
0
 10
720.532248
 20
598.582875
 42
0.007701
  0
VERTEX
  8
0
 10
703.036800
 20
615.178242
 42
0.025049
  0
VERTEX
  8
0
 10
690.750000
 20
625.391744
 42
-0.004578
  0
VERTEX
  8
0
 10
686.246044
 20
628.834041
 42
-0.007218
  0
VERTEX
  8
0
 10
682.451563
 20
631.878534
 42
-0.002573
  0
VERTEX
  8
0
 10
679.258608
 20
634.544820
 42
-0.220969
  0
VERTEX
  8
0
 10
679.000000
 20
635.101416
 42
-0.114930
  0
VERTEX
  8
0
 10
679.136427
 20
635.687095
 42
-0.313320
  0
VERTEX
  8
0
 10
679.489629
 20
635.882727
 42
-0.047165
  0
VERTEX
  8
0
 10
680.335697
 20
635.715002
 42
-0.001180
  0
VERTEX
  8
0
 10
684.099427
 20
634.582323
 42
-0.031126
  0
VERTEX
  8
0
 10
690.145729
 20
632.327733
 42
-0.034906
  0
VERTEX
  8
0
 10
695.628214
 20
629.410944
 42
-0.032241
  0
VERTEX
  8
0
 10
700.997219
 20
625.552144
 42
-0.020752
  0
VERTEX
  8
0
 10
706.715904
 20
620.443281
 42
0.010203
  0
VERTEX
  8
0
 10
712.352097
 20
615.190207
 42
0.034818
  0
VERTEX
  8
0
 10
716.310751
 20
612.116503
 42
0.056636
  0
VERTEX
  8
0
 10
719.247266
 20
610.597198
 42
0.184738
  0
VERTEX
  8
0
 10
721.398588
 20
610.599458
 42
0.229143
  0
VERTEX
  8
0
 10
723.207674
 20
612.526333
 42
0.081684
  0
VERTEX
  8
0
 10
723.749949
 20
616.364210
 42
0.055892
  0
VERTEX
  8
0
 10
723.026694
 20
621.716871
 42
0.028533
  0
VERTEX
  8
0
 10
721.000082
 20
628.198845
 42
-0.013705
  0
VERTEX
  8
0
 10
719.796583
 20
631.682135
 42
-0.162110
  0
VERTEX
  8
0
 10
719.819399
 20
633.093292
 42
-0.332401
  0
VERTEX
  8
0
 10
720.655953
 20
633.655088
 42
-0.048905
  0
VERTEX
  8
0
 10
722.802892
 20
633.334623
 42
0.026169
  0
VERTEX
  8
0
 10
724.318300
 20
633.037552
 42
0.288722
  0
VERTEX
  8
0
 10
724.857760
 20
633.279045
 42
0.185837
  0
VERTEX
  8
0
 10
725.012726
 20
633.971207
 42
0.011277
  0
VERTEX
  8
0
 10
724.647297
 20
636.102832
 42
0.051781
  0
VERTEX
  8
0
 10
723.120717
 20
641.112218
 42
0.029532
  0
VERTEX
  8
0
 10
720.318009
 20
646.793123
 42
0.029560
  0
VERTEX
  8
0
 10
716.877336
 20
652.085417
 42
0.053411
  0
VERTEX
  8
0
 10
713.386514
 20
655.890979
 42
0.049396
  0
VERTEX
  8
0
 10
706.341109
 20
660.953538
 42
0.026307
  0
VERTEX
  8
0
 10
696.769323
 20
665.836901
 42
0.020488
  0
VERTEX
  8
0
 10
687.827827
 20
669.389486
 42
0.516809
  0
VERTEX
  8
0
 10
686.000000
 20
668.093425
 42
0.146578
  0
VERTEX
  8
0
 10
686.180372
 20
667.491368
 42
0.003613
  0
VERTEX
  8
0
 10
687.799905
 20
665.069365
 42
0.007517
  0
VERTEX
  8
0
 10
689.779272
 20
662.247268
 42
0.005011
  0
VERTEX
  8
0
 10
692.127335
 20
659.071813
 42
-0.019724
  0
VERTEX
  8
0
 10
696.153424
 20
653.277968
 42
-0.090840
  0
VERTEX
  8
0
 10
697.688316
 20
649.508215
 42
-0.119773
  0
VERTEX
  8
0
 10
697.572021
 20
645.977863
 42
-0.046251
  0
VERTEX
  8
0
 10
695.817122
 20
641.368438
 42
-0.137670
  0
VERTEX
  8
0
 10
692.525116
 20
637.688637
 42
-0.304413
  0
VERTEX
  8
0
 10
688.929498
 20
637.773713
 42
-0.125814
  0
VERTEX
  8
0
 10
685.068734
 20
642.303545
 42
-0.027738
  0
VERTEX
  8
0
 10
681.059186
 20
651.785670
 42
0.020030
  0
VERTEX
  8
0
 10
678.329370
 20
658.529166
 42
0.045967
  0
VERTEX
  8
0
 10
675.625992
 20
663.288530
 42
0.032256
  0
VERTEX
  8
0
 10
671.560429
 20
668.389441
 42
0.005872
  0
VERTEX
  8
0
 10
663.323930
 20
677.245653
 42
-0.011837
  0
VERTEX
  8
0
 10
656.712694
 20
684.526593
 42
-0.051967
  0
VERTEX
  8
0
 10
653.392084
 20
689.280562
 42
-0.093249
  0
VERTEX
  8
0
 10
652.128988
 20
693.093207
 42
-0.110770
  0
VERTEX
  8
0
 10
652.456648
 20
696.863410
 42
-0.132309
  0
VERTEX
  8
0
 10
653.771282
 20
698.912523
 42
-0.049872
  0
VERTEX
  8
0
 10
656.531247
 20
700.957265
 42
-0.049246
  0
VERTEX
  8
0
 10
659.796688
 20
702.492778
 42
-0.085492
  0
VERTEX
  8
0
 10
662.741498
 20
703.000000
 42
-0.124914
  0
VERTEX
  8
0
 10
666.331340
 20
702.088938
 42
-0.040482
  0
VERTEX
  8
0
 10
670.955558
 20
699.072474
 42
-0.036319
  0
VERTEX
  8
0
 10
675.889233
 20
694.643623
 42
-0.028932
  0
VERTEX
  8
0
 10
680.546598
 20
689.212052
 42
0.008920
  0
VERTEX
  8
0
 10
686.449943
 20
681.742334
 42
0.029597
  0
VERTEX
  8
0
 10
690.698070
 20
677.143856
 42
0.042756
  0
VERTEX
  8
0
 10
694.512277
 20
674.057287
 42
0.043290
  0
VERTEX
  8
0
 10
698.780656
 20
671.678923
 42
0.036737
  0
VERTEX
  8
0
 10
704.648342
 20
669.547738
 42
0.027497
  0
VERTEX
  8
0
 10
711.362556
 20
668.046521
 42
0.026583
  0
VERTEX
  8
0
 10
717.554120
 20
667.351180
 42
0.105894
  0
VERTEX
  8
0
 10
721.309903
 20
667.927725
 42
0.051905
  0
VERTEX
  8
0
 10
723.325387
 20
668.944022
 42
0.284025
  0
VERTEX
  8
0
 10
723.829386
 20
669.996582
 42
0.189964
  0
VERTEX
  8
0
 10
723.168782
 20
671.258208
 42
0.025240
  0
VERTEX
  8
0
 10
720.750000
 20
673.145190
 42
-0.012352
  0
VERTEX
  8
0
 10
719.416398
 20
674.131385
 42
-0.011414
  0
VERTEX
  8
0
 10
718.096842
 20
675.207824
 42
-0.011487
  0
VERTEX
  8
0
 10
716.965959
 20
676.220029
 42
-0.036880
  0
VERTEX
  8
0
 10
716.281803
 20
676.963285
 42
-0.124156
  0
VERTEX
  8
0
 10
715.173552
 20
679.423513
 42
-0.080414
  0
VERTEX
  8
0
 10
715.124259
 20
682.560871
 42
-0.068185
  0
VERTEX
  8
0
 10
716.129325
 20
686.043850
 42
-0.051472
  0
VERTEX
  8
0
 10
718.110129
 20
689.503822
 42
0.019320
  0
VERTEX
  8
0
 10
719.255822
 20
691.236729
 42
0.027707
  0
VERTEX
  8
0
 10
720.122310
 20
692.860714
 42
0.026684
  0
VERTEX
  8
0
 10
720.664784
 20
694.213483
 42
0.224039
  0
VERTEX
  8
0
 10
720.592692
 20
694.850022
 42
0.158250
  0
VERTEX
  8
0
 10
720.055617
 20
695.305455
 42
0.015999
  0
VERTEX
  8
0
 10
718.465533
 20
695.899311
 42
0.018787
  0
VERTEX
  8
0
 10
716.473953
 20
696.489003
 42
0.013889
  0
VERTEX
  8
0
 10
714.232563
 20
696.996159
 42
-0.008887
  0
VERTEX
  8
0
 10
706.854050
 20
698.588267
 42
-0.026881
  0
VERTEX
  8
0
 10
701.920952
 20
700.028408
 42
-0.036161
  0
VERTEX
  8
0
 10
698.792414
 20
701.388467
 42
-0.279027
  0
VERTEX
  8
0
 10
698.000000
 20
702.697873
 42
-0.155524
  0
VERTEX
  8
0
 10
698.307984
 20
703.664076
 42
-0.011556
  0
VERTEX
  8
0
 10
699.982813
 20
705.912321
 42
-0.015156
  0
VERTEX
  8
0
 10
702.164344
 20
708.535795
 42
-0.010897
  0
VERTEX
  8
0
 10
704.750000
 20
711.334881
 42
0.010258
  0
VERTEX
  8
0
 10
707.375725
 20
714.170069
 42
0.021917
  0
VERTEX
  8
0
 10
709.258487
 20
716.485420
 42
0.022397
  0
VERTEX
  8
0
 10
710.441239
 20
718.236307
 42
0.482167
  0
VERTEX
  8
0
 10
710.255460
 20
718.746455
 42
0.174272
  0
VERTEX
  8
0
 10
709.398960
 20
718.727540
 42
0.006944
  0
VERTEX
  8
0
 10
706.454642
 20
717.547964
 42
0.011522
  0
VERTEX
  8
0
 10
702.965751
 20
715.998371
 42
0.007821
  0
VERTEX
  8
0
 10
699.064156
 20
714.081513
 42
-0.011175
  0
VERTEX
  8
0
 10
694.998503
 20
712.117793
 42
-0.013782
  0
VERTEX
  8
0
 10
691.121282
 20
710.478324
 42
-0.012816
  0
VERTEX
  8
0
 10
687.821556
 20
709.285592
 42
-0.080478
  0
VERTEX
  8
0
 10
686.058696
 20
709.000000
 42
-0.230578
  0
VERTEX
  8
0
 10
683.813724
 20
710.093416
 42
-0.297980
  0
VERTEX
  8
0
 10
683.623573
 20
712.321878
 42
-0.060996
  0
VERTEX
  8
0
 10
686.807718
 20
716.820698
 42
-0.007746
  0
VERTEX
  8
0
 10
694.946311
 20
725.500000
 42
0.018141
  0
VERTEX
  8
0
 10
703.017376
 20
734.474005
 42
0.056213
  0
VERTEX
  8
0
 10
707.501276
 20
741.260172
 42
0.072096
  0
VERTEX
  8
0
 10
709.752387
 20
747.883248
 42
0.045956
  0
VERTEX
  8
0
 10
710.500000
 20
756.000000
 42
0.011595
  0
VERTEX
  8
0
 10
710.392686
 20
760.627072
 42
0.033062
  0
VERTEX
  8
0
 10
710.031272
 20
763.826745
 42
0.041051
  0
VERTEX
  8
0
 10
709.306982
 20
766.542513
 42
0.027704
  0
VERTEX
  8
0
 10
708.063262
 20
769.500000
 42
0.062460
  0
VERTEX
  8
0
 10
704.313179
 20
775.245965
 42
0.016385
  0
VERTEX
  8
0
 10
696.917610
 20
783.414765
 42
0.008310
  0
VERTEX
  8
0
 10
688.975665
 20
791.360715
 42
0.409428
  0
VERTEX
  8
0
 10
686.944089
 20
791.344089
 42
0.152938
  0
VERTEX
  8
0
 10
686.480456
 20
790.457593
 42
0.007188
  0
VERTEX
  8
0
 10
685.923074
 20
787.088906
 42
0.011293
  0
VERTEX
  8
0
 10
685.402267
 20
783.010587
 42
0.007827
  0
VERTEX
  8
0
 10
684.990117
 20
778.380183
 42
-0.023293
  0
VERTEX
  8
0
 10
683.672426
 20
767.424367
 42
-0.035395
  0
VERTEX
  8
0
 10
681.421464
 20
758.106574
 42
-0.039527
  0
VERTEX
  8
0
 10
678.125721
 20
750.015491
 42
-0.042730
  0
VERTEX
  8
0
 10
673.668044
 20
742.764876
 42
-0.091406
  0
VERTEX
  8
0
 10
670.347585
 20
739.660041
 42
-0.011408
  0
VERTEX
  8
0
 10
661.881231
 20
734.507261
 42
-0.006991
  0
VERTEX
  8
0
 10
653.083063
 20
729.586658
 42
-0.578319
  0
VERTEX
  8
0
 10
652.007639
 20
730.250000
 42
-0.063597
  0
VERTEX
  8
0
 10
652.038089
 20
730.441639
 42
-0.000313
  0
VERTEX
  8
0
 10
652.591274
 20
732.328266
 42
-0.001430
  0
VERTEX
  8
0
 10
653.228634
 20
734.474235
 42
-0.000904
  0
VERTEX
  8
0
 10
653.983754
 20
736.973886
 42
0.013349
  0
VERTEX
  8
0
 10
654.734181
 20
739.701444
 42
0.025255
  0
VERTEX
  8
0
 10
655.167595
 20
741.939479
 42
0.026602
  0
VERTEX
  8
0
 10
655.317286
 20
743.643901
 42
0.207871
  0
VERTEX
  8
0
 10
655.031749
 20
744.368251
 42
0.271267
  0
VERTEX
  8
0
 10
653.297646
 20
744.821424
 42
0.062727
  0
VERTEX
  8
0
 10
650.403983
 20
743.599842
 42
0.046374
  0
VERTEX
  8
0
 10
646.845742
 20
741.073360
 42
0.025795
  0
VERTEX
  8
0
 10
642.993230
 20
737.399326
 42
-0.008422
  0
VERTEX
  8
0
 10
640.969558
 20
735.330529
 42
-0.012344
  0
VERTEX
  8
0
 10
639.115271
 20
733.586052
 42
-0.007768
  0
VERTEX
  8
0
 10
637.522775
 20
732.204265
 42
-0.176586
  0
VERTEX
  8
0
 10
636.962438
 20
732.000000
 42
-0.323791
  0
VERTEX
  8
0
 10
636.077394
 20
732.640265
 42
-0.041859
  0
VERTEX
  8
0
 10
635.501730
 20
735.049155
 42
-0.023298
  0
VERTEX
  8
0
 10
635.059548
 20
739.272444
 42
-0.004424
  0
VERTEX
  8
0
 10
634.681486
 20
747.000000
 42
0.056489
  0
VERTEX
  8
0
 10
632.538295
 20
760.908015
 42
0.092028
  0
VERTEX
  8
0
 10
627.366613
 20
771.633541
 42
0.078685
  0
VERTEX
  8
0
 10
618.036633
 20
780.880256
 42
0.032061
  0
VERTEX
  8
0
 10
602.853014
 20
790.394723
 42
0.006114
  0
VERTEX
  8
0
 10
597.317817
 20
793.300652
 42
0.034727
  0
VERTEX
  8
0
 10
594.257020
 20
794.601186
 42
0.100735
  0
VERTEX
  8
0
 10
592.630420
 20
794.816436
 42
0.394080
  0
SEQEND
  0
POLYLINE
  8
0
 66
1
 70
1
  0
VERTEX
  8
0
 10
697.742828
 20
760.924891
 42
-0.100669
  0
VERTEX
  8
0
 10
698.606534
 20
755.109437
 42
-0.052333
  0
VERTEX
  8
0
 10
697.448944
 20
747.834225
 42
-0.049855
  0
VERTEX
  8
0
 10
694.653878
 20
740.453058
 42
-0.060179
  0
VERTEX
  8
0
 10
690.583116
 20
734.264466
 42
-0.085709
  0
VERTEX
  8
0
 10
685.800434
 20
730.254383
 42
-0.035375
  0
VERTEX
  8
0
 10
678.188043
 20
726.520350
 42
-0.029918
  0
VERTEX
  8
0
 10
670.707063
 20
723.995514
 42
-0.332194
  0
VERTEX
  8
0
 10
667.948101
 20
725.083974
 42
-0.232607
  0
VERTEX
  8
0
 10
667.759137
 20
727.036292
 42
-0.052218
  0
VERTEX
  8
0
 10
669.301145
 20
730.110380
 42
-0.027050
  0
VERTEX
  8
0
 10
672.690555
 20
734.824413
 42
-0.005066
  0
VERTEX
  8
0
 10
679.443468
 20
743.046796
 42
0.008341
  0
VERTEX
  8
0
 10
683.311212
 20
747.819576
 42
0.008500
  0
VERTEX
  8
0
 10
686.992664
 20
752.688976
 42
0.008317
  0
VERTEX
  8
0
 10
690.047232
 20
757.024958
 42
0.034545
  0
VERTEX
  8
0
 10
691.658819
 20
759.788017
 42
-0.018469
  0
VERTEX
  8
0
 10
692.740893
 20
761.788231
 42
-0.028761
  0
VERTEX
  8
0
 10
693.831560
 20
763.416010
 42
-0.028061
  0
VERTEX
  8
0
 10
694.808672
 20
764.566839
 42
-0.289135
  0
VERTEX
  8
0
 10
695.385950
 20
764.712908
 42
-0.146449
  0
VERTEX
  8
0
 10
695.894459
 20
764.360578
 42
-0.029374
  0
VERTEX
  8
0
 10
696.537829
 20
763.450389
 42
-0.028744
  0
VERTEX
  8
0
 10
697.185282
 20
762.262711
 42
-0.023387
  0
SEQEND
  0
POLYLINE
  8
0
 66
1
 70
1
  0
VERTEX
  8
0
 10
579.000000
 20
719.000000
 42
0.003234
  0
VERTEX
  8
0
 10
585.869162
 20
717.471925
 42
0.045263
  0
VERTEX
  8
0
 10
588.380244
 20
717.164152
 42
0.125076
  0
VERTEX
  8
0
 10
589.946121
 20
717.509982
 42
0.079963
  0
VERTEX
  8
0
 10
591.464451
 20
718.607308
 42
-0.048046
  0
VERTEX
  8
0
 10
592.462942
 20
719.430357
 42
-0.211892
  0
VERTEX
  8
0
 10
593.196212
 20
719.560575
 42
-0.131218
  0
VERTEX
  8
0
 10
594.004217
 20
719.116219
 42
-0.014912
  0
VERTEX
  8
0
 10
595.479201
 20
717.616943
 42
0.034911
  0
VERTEX
  8
0
 10
596.570896
 20
716.592570
 42
0.054051
  0
VERTEX
  8
0
 10
597.654158
 20
715.889329
 42
0.067484
  0
VERTEX
  8
0
 10
598.640397
 20
715.548161
 42
0.142117
  0
VERTEX
  8
0
 10
599.440630
 20
715.615591
 42
-0.158379
  0
VERTEX
  8
0
 10
600.305746
 20
715.660841
 42
-0.049170
  0
VERTEX
  8
0
 10
601.539935
 20
715.196075
 42
-0.040440
  0
VERTEX
  8
0
 10
602.987392
 20
714.329903
 42
-0.025117
  0
VERTEX
  8
0
 10
604.539567
 20
713.099403
 42
0.032104
  0
VERTEX
  8
0
 10
606.402040
 20
711.664797
 42
0.011836
  0
VERTEX
  8
0
 10
609.197812
 20
709.878737
 42
0.011675
  0
VERTEX
  8
0
 10
612.351255
 20
708.067021
 42
0.013764
  0
VERTEX
  8
0
 10
615.419406
 20
706.506190
 42
-0.042318
  0
VERTEX
  8
0
 10
627.993981
 20
699.178004
 42
-0.018203
  0
VERTEX
  8
0
 10
643.478877
 20
687.439330
 42
-0.018164
  0
VERTEX
  8
0
 10
658.022493
 20
674.648201
 42
-0.043931
  0
VERTEX
  8
0
 10
667.509665
 20
663.946048
 42
-0.050771
  0
VERTEX
  8
0
 10
670.616212
 20
658.716573
 42
-0.026891
  0
VERTEX
  8
0
 10
673.421804
 20
651.708673
 42
-0.026700
  0
VERTEX
  8
0
 10
675.404822
 20
644.643906
 42
-0.068100
  0
VERTEX
  8
0
 10
675.851664
 20
639.354113
 42
0.000000
  0
VERTEX
  8
0
 10
675.616876
 20
634.818393
 42
0.000000
  0
VERTEX
  8
0
 10
708.838076
 20
602.159197
 42
-0.002445
  0
VERTEX
  8
0
 10
721.571627
 20
589.518002
 42
-0.003928
  0
VERTEX
  8
0
 10
732.291843
 20
578.600714
 42
-0.000853
  0
VERTEX
  8
0
 10
741.586348
 20
568.952500
 42
-0.198207
  0
VERTEX
  8
0
 10
742.029638
 20
567.821956
 42
-0.183796
  0
VERTEX
  8
0
 10
741.691678
 20
566.978740
 42
-0.108344
  0
VERTEX
  8
0
 10
740.790643
 20
566.348693
 42
-0.054517
  0
VERTEX
  8
0
 10
739.128637
 20
565.860955
 42
-0.013057
  0
VERTEX
  8
0
 10
736.280583
 20
565.429319
 42
-0.033507
  0
VERTEX
  8
0
 10
729.019253
 20
565.012719
 42
-0.006445
  0
VERTEX
  8
0
 10
715.835240
 20
565.310310
 42
-0.007328
  0
VERTEX
  8
0
 10
701.984747
 20
566.004979
 42
-0.014389
  0
VERTEX
  8
0
 10
691.000000
 20
567.035549
 42
0.016644
  0
VERTEX
  8
0
 10
684.020395
 20
567.658632
 42
0.064758
  0
VERTEX
  8
0
 10
679.703801
 20
567.340421
 42
0.121685
  0
VERTEX
  8
0
 10
677.097669
 20
566.097230
 42
0.158236
  0
VERTEX
  8
0
 10
675.679750
 20
563.883363
 42
0.224129
  0
VERTEX
  8
0
 10
676.177922
 20
561.224155
 42
0.054758
  0
VERTEX
  8
0
 10
679.249866
 20
557.829726
 42
0.033502
  0
VERTEX
  8
0
 10
684.871378
 20
553.477254
 42
0.009582
  0
VERTEX
  8
0
 10
694.141517
 20
547.500000
 42
-0.008161
  0
VERTEX
  8
0
 10
698.790956
 20
544.520777
 42
-0.007888
  0
VERTEX
  8
0
 10
703.394369
 20
541.358166
 42
-0.007832
  0
VERTEX
  8
0
 10
707.358143
 20
538.447449
 42
-0.028488
  0
VERTEX
  8
0
 10
709.734345
 20
536.421417
 42
-0.016833
  0
VERTEX
  8
0
 10
712.186342
 20
533.913633
 42
-0.075311
  0
VERTEX
  8
0
 10
713.326863
 20
532.210783
 42
-0.085977
  0
VERTEX
  8
0
 10
713.836319
 20
530.357579
 42
-0.025753
  0
VERTEX
  8
0
 10
713.969278
 20
527.421417
 42
-0.034048
  0
VERTEX
  8
0
 10
713.799667
 20
525.143175
 42
-0.017691
  0
VERTEX
  8
0
 10
713.295266
 20
522.335550
 42
-0.017508
  0
VERTEX
  8
0
 10
712.570876
 20
519.476528
 42
-0.025447
  0
VERTEX
  8
0
 10
711.717910
 20
517.018754
 42
-0.081488
  0
VERTEX
  8
0
 10
708.905745
 20
512.406604
 42
-0.095078
  0
VERTEX
  8
0
 10
704.892821
 20
509.220486
 42
-0.040455
  0
VERTEX
  8
0
 10
697.611082
 20
506.136686
 42
-0.004335
  0
VERTEX
  8
0
 10
680.138071
 20
500.519149
 42
0.001450
  0
VERTEX
  8
0
 10
665.311757
 20
495.846730
 42
0.011620
  0
VERTEX
  8
0
 10
658.540574
 20
493.516604
 42
0.017669
  0
VERTEX
  8
0
 10
654.711284
 20
491.942546
 42
0.294459
  0
VERTEX
  8
0
 10
654.000000
 20
490.839485
 42
0.411584
  0
VERTEX
  8
0
 10
654.772961
 20
490.059547
 42
0.029058
  0
VERTEX
  8
0
 10
658.150793
 20
490.225583
 42
0.017818
  0
VERTEX
  8
0
 10
663.917561
 20
491.055002
 42
0.003148
  0
VERTEX
  8
0
 10
674.662904
 20
493.063393
 42
-0.017318
  0
VERTEX
  8
0
 10
691.553848
 20
495.727576
 42
-0.068122
  0
VERTEX
  8
0
 10
702.067768
 20
495.577984
 42
-0.134975
  0
VERTEX
  8
0
 10
708.287229
 20
492.811054
 42
-0.176404
  0
VERTEX
  8
0
 10
711.434767
 20
487.496030
 42
-0.079886
  0
VERTEX
  8
0
 10
711.553345
 20
482.938676
 42
-0.024897
  0
VERTEX
  8
0
 10
710.302721
 20
476.188756
 42
-0.021604
  0
VERTEX
  8
0
 10
707.963188
 20
467.934400
 42
-0.013336
  0
VERTEX
  8
0
 10
704.540205
 20
458.441120
 42
-0.007715
  0
VERTEX
  8
0
 10
700.742871
 20
449.154522
 42
-0.019026
  0
VERTEX
  8
0
 10
697.596225
 20
442.498898
 42
-0.018270
  0
VERTEX
  8
0
 10
694.980101
 20
437.889411
 42
-0.260152
  0
VERTEX
  8
0
 10
693.386384
 20
437.000000
 42
-0.275755
  0
VERTEX
  8
0
 10
692.539856
 20
437.505291
 42
-0.054844
  0
VERTEX
  8
0
 10
691.849874
 20
439.208280
 42
-0.034424
  0
VERTEX
  8
0
 10
691.262294
 20
442.012490
 42
-0.010766
  0
VERTEX
  8
0
 10
690.764059
 20
446.281089
 42
0.032571
  0
VERTEX
  8
0
 10
690.589885
 20
447.361860
 42
0.043215
  0
VERTEX
  8
0
 10
690.284980
 20
448.309539
 42
0.049734
  0
VERTEX
  8
0
 10
689.905474
 20
449.009127
 42
0.191808
  0
VERTEX
  8
0
 10
689.503957
 20
449.281089
 42
0.324557
  0
VERTEX
  8
0
 10
688.183297
 20
448.705013
 42
0.013626
  0
VERTEX
  8
0
 10
685.560985
 20
443.956520
 42
0.019452
  0
VERTEX
  8
0
 10
682.712717
 20
437.881427
 42
0.013113
  0
VERTEX
  8
0
 10
679.919677
 20
430.750000
 42
-0.007540
  0
VERTEX
  8
0
 10
678.648959
 20
427.395891
 42
-0.011988
  0
VERTEX
  8
0
 10
677.450325
 20
424.570312
 42
-0.005929
  0
VERTEX
  8
0
 10
676.370824
 20
422.259532
 42
-0.288071
  0
VERTEX
  8
0
 10
675.957740
 20
422.000000
 42
-0.268611
  0
VERTEX
  8
0
 10
675.568668
 20
422.225272
 42
-0.016068
  0
VERTEX
  8
0
 10
674.907014
 20
423.468750
 42
-0.020608
  0
VERTEX
  8
0
 10
674.194151
 20
425.083872
 42
-0.013441
  0
VERTEX
  8
0
 10
673.500000
 20
427.000000
 42
0.015927
  0
VERTEX
  8
0
 10
672.795143
 20
428.915883
 42
0.023990
  0
VERTEX
  8
0
 10
672.049694
 20
430.531250
 42
0.020895
  0
VERTEX
  8
0
 10
671.348326
 20
431.750247
 42
0.257181
  0
VERTEX
  8
0
 10
670.894882
 20
432.000000
 42
0.295809
  0
VERTEX
  8
0
 10
669.735251
 20
431.248151
 42
0.035712
  0
VERTEX
  8
0
 10
668.643317
 20
428.247221
 42
0.027709
  0
VERTEX
  8
0
 10
667.601275
 20
423.634491
 42
0.010108
  0
VERTEX
  8
0
 10
666.623071
 20
417.007822
 42
-0.007713
  0
VERTEX
  8
0
 10
666.113738
 20
413.439210
 42
-0.015063
  0
VERTEX
  8
0
 10
665.578645
 20
410.616103
 42
-0.014467
  0
VERTEX
  8
0
 10
665.077304
 20
408.622561
 42
-0.652568
  0
VERTEX
  8
0
 10
664.760674
 20
408.578220
 42
-0.061927
  0
VERTEX
  8
0
 10
664.389804
 20
409.387144
 42
-0.001804
  0
VERTEX
  8
0
 10
663.265761
 20
412.988029
 42
-0.003605
  0
VERTEX
  8
0
 10
661.986414
 20
417.247908
 42
-0.002473
  0
VERTEX
  8
0
 10
660.593794
 20
422.098206
 42
0.006991
  0
VERTEX
  8
0
 10
656.562152
 20
435.676112
 42
0.061642
  0
VERTEX
  8
0
 10
653.981601
 20
441.366649
 42
0.255594
  0
VERTEX
  8
0
 10
651.501212
 20
442.791602
 42
0.214283
  0
VERTEX
  8
0
 10
648.672482
 20
441.591611
 42
-0.012046
  0
VERTEX
  8
0
 10
647.706969
 20
440.598879
 42
-0.016757
  0
VERTEX
  8
0
 10
646.792770
 20
439.761286
 42
-0.013224
  0
VERTEX
  8
0
 10
646.004923
 20
439.121917
 42
-0.165304
  0
VERTEX
  8
0
 10
645.646234
 20
439.000000
 42
-0.409234
  0
VERTEX
  8
0
 10
645.411511
 20
439.230759
 42
-0.004659
  0
VERTEX
  8
0
 10
645.392893
 20
441.643750
 42
-0.010842
  0
VERTEX
  8
0
 10
645.460552
 20
444.548932
 42
-0.006474
  0
VERTEX
  8
0
 10
645.660647
 20
448.000000
 42
0.007252
  0
VERTEX
  8
0
 10
645.855350
 20
451.451048
 42
0.012146
  0
VERTEX
  8
0
 10
645.906377
 20
454.356250
 42
0.005815
  0
VERTEX
  8
0
 10
645.862509
 20
456.745329
 42
0.405457
  0
VERTEX
  8
0
 10
645.600083
 20
457.000000
 42
0.158722
  0
VERTEX
  8
0
 10
642.358932
 20
455.944525
 42
0.033860
  0
VERTEX
  8
0
 10
637.756920
 20
452.089262
 42
0.035271
  0
VERTEX
  8
0
 10
633.265177
 20
447.122909
 42
0.048288
  0
VERTEX
  8
0
 10
630.022988
 20
442.045060
 42
-0.010703
  0
VERTEX
  8
0
 10
629.189882
 20
440.494924
 42
-0.016242
  0
VERTEX
  8
0
 10
628.394067
 20
439.188236
 42
-0.010934
  0
VERTEX
  8
0
 10
627.688998
 20
438.160689
 42
-0.241420
  0
VERTEX
  8
0
 10
627.375595
 20
438.000000
 42
-0.436536
  0
VERTEX
  8
0
 10
626.869764
 20
438.545599
 42
-0.002448
  0
VERTEX
  8
0
 10
627.500612
 20
446.364795
 42
-0.008733
  0
VERTEX
  8
0
 10
628.254259
 20
453.665390
 42
-0.032516
  0
VERTEX
  8
0
 10
629.105308
 20
458.204531
 42
-0.036177
  0
VERTEX
  8
0
 10
629.653849
 20
459.845129
 42
-0.021270
  0
VERTEX
  8
0
 10
630.530746
 20
461.719801
 42
-0.021206
  0
VERTEX
  8
0
 10
631.572204
 20
463.528399
 42
-0.033672
  0
VERTEX
  8
0
 10
632.627622
 20
464.969301
 42
0.030470
  0
VERTEX
  8
0
 10
633.634314
 20
466.325394
 42
0.045249
  0
VERTEX
  8
0
 10
634.326420
 20
467.631666
 42
0.054628
  0
VERTEX
  8
0
 10
634.665821
 20
468.778878
 42
0.137075
  0
VERTEX
  8
0
 10
634.584682
 20
469.639917
 42
0.287203
  0
VERTEX
  8
0
 10
633.155785
 20
470.715024
 42
0.059253
  0
VERTEX
  8
0
 10
629.860960
 20
470.607304
 42
0.042228
  0
VERTEX
  8
0
 10
625.245141
 20
469.499949
 42
0.020245
  0
VERTEX
  8
0
 10
619.538671
 20
467.349781
 42
-0.008790
  0
VERTEX
  8
0
 10
617.011266
 20
466.330777
 42
-0.008397
  0
VERTEX
  8
0
 10
614.410973
 20
465.384919
 42
-0.008366
  0
VERTEX
  8
0
 10
612.087721
 20
464.626999
 42
-0.029508
  0
VERTEX
  8
0
 10
610.562513
 20
464.254375
 42
0.000000
  0
VERTEX
  8
0
 10
607.625027
 20
463.717967
 42
0.000000
  0
VERTEX
  8
0
 10
609.654459
 20
466.923235
 42
-0.037653
  0
VERTEX
  8
0
 10
615.217515
 20
474.399493
 42
-0.065725
  0
VERTEX
  8
0
 10
620.991543
 20
479.510403
 42
-0.059923
  0
VERTEX
  8
0
 10
628.267780
 20
483.239379
 42
-0.026349
  0
VERTEX
  8
0
 10
638.619022
 20
486.454977
 42
0.006482
  0
VERTEX
  8
0
 10
642.403884
 20
487.467811
 42
0.009115
  0
VERTEX
  8
0
 10
645.750718
 20
488.476280
 42
0.005928
  0
VERTEX
  8
0
 10
648.515390
 20
489.400912
 42
0.113178
  0
VERTEX
  8
0
 10
649.280768
 20
489.880768
 42
0.498714
  0
VERTEX
  8
0
 10
649.158389
 20
490.750202
 42
0.050116
  0
VERTEX
  8
0
 10
646.910466
 20
491.715406
 42
0.014088
  0
VERTEX
  8
0
 10
641.739339
 20
493.186990
 42
0.000969
  0
VERTEX
  8
0
 10
627.000000
 20
496.905615
 42
-0.007008
  0
VERTEX
  8
0
 10
611.939511
 20
500.899316
 42
-0.039817
  0
VERTEX
  8
0
 10
604.164123
 20
503.762419
 42
-0.056583
  0
VERTEX
  8
0
 10
598.192844
 20
507.386212
 42
-0.023146
  0
VERTEX
  8
0
 10
590.955180
 20
513.541844
 42
0.017242
  0
VERTEX
  8
0
 10
586.270748
 20
517.622203
 42
0.008471
  0
VERTEX
  8
0
 10
580.048999
 20
522.502622
 42
0.008084
  0
VERTEX
  8
0
 10
573.082376
 20
527.604033
 42
0.008409
  0
VERTEX
  8
0
 10
566.044296
 20
532.409414
 42
-0.005058
  0
VERTEX
  8
0
 10
559.738682
 20
536.653020
 42
-0.006344
  0
VERTEX
  8
0
 10
553.983756
 20
540.719710
 42
-0.005175
  0
VERTEX
  8
0
 10
549.243868
 20
544.235594
 42
-0.048642
  0
VERTEX
  8
0
 10
547.382680
 20
545.954811
 42
0.014300
  0
VERTEX
  8
0
 10
546.282064
 20
547.121136
 42
0.019371
  0
VERTEX
  8
0
 10
545.219157
 20
548.105476
 42
0.016639
  0
VERTEX
  8
0
 10
544.296225
 20
548.844256
 42
0.161829
  0
VERTEX
  8
0
 10
543.827628
 20
549.000000
 42
0.392063
  0
VERTEX
  8
0
 10
543.494886
 20
548.691699
 42
0.005136
  0
VERTEX
  8
0
 10
543.292031
 20
545.619955
 42
0.011417
  0
VERTEX
  8
0
 10
543.170014
 20
541.905487
 42
0.006858
  0
VERTEX
  8
0
 10
543.186389
 20
537.493463
 42
-0.008345
  0
VERTEX
  8
0
 10
543.195191
 20
525.552440
 42
-0.466931
  0
VERTEX
  8
0
 10
541.667593
 20
524.314207
 42
-0.312903
  0
VERTEX
  8
0
 10
539.898337
 20
526.132389
 42
-0.007395
  0
VERTEX
  8
0
 10
538.023242
 20
538.500000
 42
0.010019
  0
VERTEX
  8
0
 10
537.415417
 20
542.371840
 42
0.004272
  0
VERTEX
  8
0
 10
536.454229
 20
547.528125
 42
0.004225
  0
VERTEX
  8
0
 10
535.335309
 20
553.011628
 42
0.005537
  0
VERTEX
  8
0
 10
534.215554
 20
558.000000
 42
-0.011745
  0
VERTEX
  8
0
 10
532.694214
 20
565.194124
 42
-0.025007
  0
VERTEX
  8
0
 10
531.929558
 20
570.827657
 42
-0.018020
  0
VERTEX
  8
0
 10
531.600943
 20
577.546762
 42
-0.003640
  0
VERTEX
  8
0
 10
531.534587
 20
589.500000
 42
-0.004258
  0
VERTEX
  8
0
 10
531.626977
 20
598.516602
 42
-0.008804
  0
VERTEX
  8
0
 10
531.883190
 20
605.557878
 42
-0.010005
  0
VERTEX
  8
0
 10
532.277240
 20
610.874005
 42
-0.048127
  0
VERTEX
  8
0
 10
532.850312
 20
613.850942
 42
0.013487
  0
VERTEX
  8
0
 10
533.302850
 20
615.556286
 42
0.019796
  0
VERTEX
  8
0
 10
533.600124
 20
617.078786
 42
0.015684
  0
VERTEX
  8
0
 10
533.752143
 20
618.319931
 42
0.222546
  0
VERTEX
  8
0
 10
533.603818
 20
618.729515
 42
0.377050
  0
VERTEX
  8
0
 10
533.186738
 20
618.756356
 42
0.003984
  0
VERTEX
  8
0
 10
530.723113
 20
616.825161
 42
0.010028
  0
VERTEX
  8
0
 10
527.849756
 20
614.439830
 42
0.006058
  0
VERTEX
  8
0
 10
524.538093
 20
611.505677
 42
-0.007442
  0
VERTEX
  8
0
 10
521.261761
 20
608.618978
 42
-0.013840
  0
VERTEX
  8
0
 10
518.508065
 20
606.393541
 42
-0.010284
  0
VERTEX
  8
0
 10
516.342218
 20
604.809562
 42
-0.606822
  0
VERTEX
  8
0
 10
516.000000
 20
604.987704
 42
-0.142374
  0
VERTEX
  8
0
 10
516.414845
 20
606.415063
 42
-0.006357
  0
VERTEX
  8
0
 10
519.251218
 20
610.759370
 42
-0.007860
  0
VERTEX
  8
0
 10
523.436157
 20
616.787575
 42
-0.002414
  0
VERTEX
  8
0
 10
529.938306
 20
625.754543
 42
0.011210
  0
VERTEX
  8
0
 10
533.077644
 20
630.248189
 42
0.050209
  0
VERTEX
  8
0
 10
534.578564
 20
633.082269
 42
0.055520
  0
VERTEX
  8
0
 10
535.411202
 20
636.024514
 42
0.015672
  0
VERTEX
  8
0
 10
536.046510
 20
640.754543
 42
-0.005932
  0
VERTEX
  8
0
 10
536.400865
 20
643.848416
 42
-0.007200
  0
VERTEX
  8
0
 10
536.809080
 20
646.738835
 42
-0.006183
  0
VERTEX
  8
0
 10
537.216786
 20
649.156436
 42
-0.048659
  0
VERTEX
  8
0
 10
537.527315
 20
650.250000
 42
0.126944
  0
VERTEX
  8
0
 10
537.674080
 20
651.453183
 42
0.428461
  0
VERTEX
  8
0
 10
537.102408
 20
651.870035
 42
0.091240
  0
VERTEX
  8
0
 10
535.536625
 20
651.277930
 42
0.011602
  0
VERTEX
  8
0
 10
532.482135
 20
649.334249
 42
0.043378
  0
VERTEX
  8
0
 10
520.430327
 20
639.655741
 42
0.035151
  0
VERTEX
  8
0
 10
509.279926
 20
627.375347
 42
0.032172
  0
VERTEX
  8
0
 10
499.062078
 20
612.523418
 42
0.024681
  0
VERTEX
  8
0
 10
489.808412
 20
595.130177
 42
-0.004386
  0
VERTEX
  8
0
 10
483.387194
 20
581.781324
 42
-0.022602
  0
VERTEX
  8
0
 10
479.438487
 20
574.593046
 42
-0.018012
  0
VERTEX
  8
0
 10
474.522291
 20
567.146986
 42
-0.002114
  0
VERTEX
  8
0
 10
462.902228
 20
551.000000
 42
0.014661
  0
VERTEX
  8
0
 10
456.001783
 20
540.885331
 42
0.023331
  0
VERTEX
  8
0
 10
450.773216
 20
531.810781
 42
0.026221
  0
VERTEX
  8
0
 10
446.868215
 20
523.151120
 42
0.027997
  0
VERTEX
  8
0
 10
443.986902
 20
514.315470
 42
-0.010207
  0
VERTEX
  8
0
 10
443.048757
 20
511.048806
 42
-0.012062
  0
VERTEX
  8
0
 10
442.024814
 20
508.001852
 42
-0.010967
  0
VERTEX
  8
0
 10
441.046695
 20
505.481942
 42
-0.071449
  0
VERTEX
  8
0
 10
440.355629
 20
504.315470
 42
-0.711482
  0
VERTEX
  8
0
 10
438.812931
 20
504.867232
 42
-0.005777
  0
VERTEX
  8
0
 10
439.201892
 20
523.367681
 42
-0.010583
  0
VERTEX
  8
0
 10
440.210890
 20
542.125435
 42
-0.033995
  0
VERTEX
  8
0
 10
441.990940
 20
554.500000
 42
-0.037932
  0
VERTEX
  8
0
 10
449.442262
 20
579.777839
 42
-0.047568
  0
VERTEX
  8
0
 10
460.231201
 20
601.688743
 42
-0.050448
  0
VERTEX
  8
0
 10
474.338878
 20
620.115162
 42
-0.052765
  0
VERTEX
  8
0
 10
491.657456
 20
635.034985
 42
-0.010399
  0
VERTEX
  8
0
 10
500.673368
 20
641.005242
 42
-0.732594
  0
VERTEX
  8
0
 10
501.601584
 20
640.222725
 42
-0.089229
  0
VERTEX
  8
0
 10
499.219204
 20
636.523501
 42
-0.002773
  0
VERTEX
  8
0
 10
486.790167
 20
623.333193
 42
0.018336
  0
VERTEX
  8
0
 10
473.739667
 20
608.589950
 42
0.031358
  0
VERTEX
  8
0
 10
464.124836
 20
595.269267
 42
0.033843
  0
VERTEX
  8
0
 10
456.750733
 20
581.604220
 42
0.026306
  0
VERTEX
  8
0
 10
450.568761
 20
565.880054
 42
0.020404
  0
VERTEX
  8
0
 10
448.217280
 20
557.738884
 42
0.008164
  0
VERTEX
  8
0
 10
445.638922
 20
546.424380
 42
0.006503
  0
VERTEX
  8
0
 10
443.457774
 20
535.364898
 42
0.050377
  0
VERTEX
  8
0
 10
443.031803
 20
530.120473
 42
0.604087
  0
VERTEX
  8
0
 10
443.701144
 20
529.785228
 42
0.093352
  0
VERTEX
  8
0
 10
445.043616
 20
531.191682
 42
0.022810
  0
VERTEX
  8
0
 10
447.538709
 20
535.446716
 42
0.004609
  0
VERTEX
  8
0
 10
451.551327
 20
543.239293
 42
-0.010707
  0
VERTEX
  8
0
 10
454.381257
 20
548.574198
 42
-0.003860
  0
VERTEX
  8
0
 10
458.625318
 20
556.041126
 42
-0.003826
  0
VERTEX
  8
0
 10
463.401933
 20
564.152216
 42
-0.004535
  0
VERTEX
  8
0
 10
468.042550
 20
571.739293
 42
0.004103
  0
VERTEX
  8
0
 10
472.546777
 20
579.089096
 42
0.004147
  0
VERTEX
  8
0
 10
476.913602
 20
586.485917
 42
0.004043
  0
VERTEX
  8
0
 10
480.609896
 20
592.987921
 42
0.016799
  0
VERTEX
  8
0
 10
482.674433
 20
597.000000
 42
-0.001945
  0
VERTEX
  8
0
 10
491.528831
 20
615.540719
 42
-0.021884
  0
VERTEX
  8
0
 10
495.389864
 20
622.724122
 42
-0.043755
  0
VERTEX
  8
0
 10
498.945235
 20
627.658146
 42
-0.019552
  0
VERTEX
  8
0
 10
504.410991
 20
633.513950
 42
-0.004182
  0
VERTEX
  8
0
 10
508.088227
 20
637.096613
 42
-0.002575
  0
VERTEX
  8
0
 10
512.473312
 20
641.254897
 42
-0.002582
  0
VERTEX
  8
0
 10
516.852183
 20
645.322344
 42
-0.004620
  0
VERTEX
  8
0
 10
520.498156
 20
648.612478
 42
0.004580
  0
VERTEX
  8
0
 10
525.272927
 20
652.920544
 42
0.048440
  0
VERTEX
  8
0
 10
527.022463
 20
654.872473
 42
0.157269
  0
VERTEX
  8
0
 10
527.468393
 20
656.209212
 42
0.177512
  0
VERTEX
  8
0
 10
527.017165
 20
657.479318
 42
-0.082653
  0
VERTEX
  8
0
 10
526.365028
 20
658.597989
 42
-0.204948
  0
VERTEX
  8
0
 10
526.403525
 20
659.526554
 42
-0.092675
  0
VERTEX
  8
0
 10
527.203035
 20
660.621825
 42
-0.010200
  0
VERTEX
  8
0
 10
529.519009
 20
662.715457
 42
-0.037338
  0
VERTEX
  8
0
 10
531.821896
 20
664.429976
 42
-0.008753
  0
VERTEX
  8
0
 10
535.929021
 20
666.935831
 42
-0.008972
  0
VERTEX
  8
0
 10
540.768210
 20
669.657821
 42
-0.008708
  0
VERTEX
  8
0
 10
545.750000
 20
672.232562
 42
0.007542
  0
VERTEX
  8
0
 10
550.445330
 20
674.645394
 42
0.011803
  0
VERTEX
  8
0
 10
554.401562
 20
676.875929
 42
0.005999
  0
VERTEX
  8
0
 10
557.625641
 20
678.848115
 42
0.257958
  0
VERTEX
  8
0
 10
558.000000
 20
679.525450
 42
0.163048
  0
VERTEX
  8
0
 10
557.539499
 20
680.900071
 42
0.100587
  0
VERTEX
  8
0
 10
556.249468
 20
682.040200
 42
0.065772
  0
VERTEX
  8
0
 10
554.073539
 20
682.939558
 42
0.027226
  0
VERTEX
  8
0
 10
550.950386
 20
683.592659
 42
-0.015809
  0
VERTEX
  8
0
 10
549.154940
 20
683.925541
 42
-0.017365
  0
VERTEX
  8
0
 10
547.440113
 20
684.362793
 42
-0.017020
  0
VERTEX
  8
0
 10
546.007720
 20
684.834977
 42
-0.079007
  0
VERTEX
  8
0
 10
545.250000
 20
685.258965
 42
-0.284895
  0
VERTEX
  8
0
 10
543.998539
 20
688.710111
 42
-0.107428
  0
VERTEX
  8
0
 10
546.188972
 20
693.598739
 42
-0.083476
  0
VERTEX
  8
0
 10
550.876966
 20
698.134988
 42
-0.106924
  0
VERTEX
  8
0
 10
556.418996
 20
700.408816
 42
0.057289
  0
VERTEX
  8
0
 10
558.620366
 20
701.067548
 42
0.134093
  0
VERTEX
  8
0
 10
559.954217
 20
702.128219
 42
0.136464
  0
VERTEX
  8
0
 10
560.550169
 20
703.706026
 42
0.060259
  0
VERTEX
  8
0
 10
560.481660
 20
705.952905
 42
-0.011538
  0
VERTEX
  8
0
 10
559.340838
 20
714.832369
 42
-0.111485
  0
VERTEX
  8
0
 10
559.783114
 20
718.583947
 42
-0.240969
  0
VERTEX
  8
0
 10
561.697676
 20
720.398088
 42
-0.072878
  0
VERTEX
  8
0
 10
565.785184
 20
720.974326
 42
-0.026637
  0
VERTEX
  8
0
 10
568.171070
 20
720.834099
 42
-0.009085
  0
VERTEX
  8
0
 10
571.611898
 20
720.383778
 42
-0.009003
  0
VERTEX
  8
0
 10
575.399949
 20
719.747913
 42
-0.010261
  0
SEQEND
  0
POLYLINE
  8
0
 66
1
 70
1
  0
VERTEX
  8
0
 10
457.000000
 20
774.587815
 42
0.005625
  0
VERTEX
  8
0
 10
447.123420
 20
770.737366
 42
0.004448
  0
VERTEX
  8
0
 10
436.527187
 20
766.358449
 42
0.004364
  0
VERTEX
  8
0
 10
425.763335
 20
761.686512
 42
0.004742
  0
VERTEX
  8
0
 10
415.377853
 20
756.952233
 42
-0.001259
  0
VERTEX
  8
0
 10
410.797943
 20
754.825802
 42
-0.000401
  0
VERTEX
  8
0
 10
403.967244
 20
751.681855
 42
-0.000400
  0
VERTEX
  8
0
 10
396.351056
 20
748.191140
 42
-0.000446
  0
VERTEX
  8
0
 10
389.000000
 20
744.836977
 42
0.006840
  0
VERTEX
  8
0
 10
370.977265
 20
736.333382
 42
0.017636
  0
VERTEX
  8
0
 10
358.279270
 20
729.563611
 42
0.022328
  0
VERTEX
  8
0
 10
347.975715
 20
722.963401
 42
0.019649
  0
VERTEX
  8
0
 10
337.838127
 20
715.197999
 42
0.042546
  0
VERTEX
  8
0
 10
323.823672
 20
701.389474
 42
0.052103
  0
VERTEX
  8
0
 10
313.391364
 20
686.259299
 42
0.050572
  0
VERTEX
  8
0
 10
306.092184
 20
668.921499
 42
0.036760
  0
VERTEX
  8
0
 10
301.441179
 20
648.500000
 42
-0.007689
  0
VERTEX
  8
0
 10
299.841962
 20
638.944396
 42
-0.015095
  0
VERTEX
  8
0
 10
298.224534
 20
631.407280
 42
-0.018714
  0
VERTEX
  8
0
 10
296.467786
 20
625.274949
 42
-0.028185
  0
VERTEX
  8
0
 10
294.443158
 20
620.097724
 42
0.007629
  0
VERTEX
  8
0
 10
293.521976
 20
618.000544
 42
0.012106
  0
VERTEX
  8
0
 10
292.804663
 20
616.175055
 42
0.006059
  0
VERTEX
  8
0
 10
292.264433
 20
614.638465
 42
0.285217
  0
VERTEX
  8
0
 10
292.336536
 20
614.330131
 42
0.424671
  0
VERTEX
  8
0
 10
292.609831
 20
614.334992
 42
0.002594
  0
VERTEX
  8
0
 10
294.470485
 20
616.353856
 42
0.008043
  0
VERTEX
  8
0
 10
296.612953
 20
618.780087
 42
0.004794
  0
VERTEX
  8
0
 10
299.088047
 20
621.732407
 42
-0.006844
  0
VERTEX
  8
0
 10
305.872315
 20
629.757691
 42
-0.014085
  0
VERTEX
  8
0
 10
311.439988
 20
635.810766
 42
-0.014240
  0
VERTEX
  8
0
 10
317.300455
 20
641.499127
 42
-0.007160
  0
VERTEX
  8
0
 10
325.000000
 20
648.357725
 42
0.002653
  0
VERTEX
  8
0
 10
332.214762
 20
654.668784
 42
0.013078
  0
VERTEX
  8
0
 10
336.168558
 20
658.353205
 42
0.017473
  0
VERTEX
  8
0
 10
338.514025
 20
660.823159
 42
0.183160
  0
VERTEX
  8
0
 10
339.000000
 20
662.105292
 42
0.348062
  0
VERTEX
  8
0
 10
338.739688
 20
662.433935
 42
0.014316
  0
VERTEX
  8
0
 10
337.164062
 20
662.757233
 42
0.019565
  0
VERTEX
  8
0
 10
335.146072
 20
663.030555
 42
0.011975
  0
VERTEX
  8
0
 10
332.750000
 20
663.202283
 42
-0.008877
  0
VERTEX
  8
0
 10
329.085261
 20
663.442127
 42
-0.072778
  0
VERTEX
  8
0
 10
327.457971
 20
663.820414
 42
-0.166180
  0
VERTEX
  8
0
 10
326.617133
 20
664.533047
 42
-0.099691
  0
VERTEX
  8
0
 10
326.176522
 20
665.779970
 42
-0.140633
  0
VERTEX
  8
0
 10
326.378605
 20
667.229765
 42
-0.050835
  0
VERTEX
  8
0
 10
327.421006
 20
669.052432
 42
-0.031996
  0
VERTEX
  8
0
 10
329.380251
 20
671.450338
 42
-0.009452
  0
VERTEX
  8
0
 10
332.676522
 20
674.863803
 42
-0.042586
  0
VERTEX
  8
0
 10
351.537842
 20
690.713070
 42
-0.018836
  0
VERTEX
  8
0
 10
378.848730
 20
708.452537
 42
-0.018887
  0
VERTEX
  8
0
 10
408.048912
 20
724.427912
 42
-0.034261
  0
VERTEX
  8
0
 10
433.170895
 20
734.882353
 42
0.005027
  0
VERTEX
  8
0
 10
438.157359
 20
736.623324
 42
0.006664
  0
VERTEX
  8
0
 10
442.657015
 20
738.313366
 42
0.004893
  0
VERTEX
  8
0
 10
446.382374
 20
739.811727
 42
0.064174
  0
VERTEX
  8
0
 10
447.670895
 20
740.550111
 42
0.011518
  0
VERTEX
  8
0
 10
448.766985
 20
741.421305
 42
0.372792
  0
VERTEX
  8
0
 10
448.818006
 20
741.732471
 42
0.249969
  0
VERTEX
  8
0
 10
448.490008
 20
741.924541
 42
0.007020
  0
VERTEX
  8
0
 10
446.799221
 20
741.968197
 42
0.076212
  0
VERTEX
  8
0
 10
436.257621
 20
740.478838
 42
0.016717
  0
VERTEX
  8
0
 10
418.867254
 20
734.601457
 42
0.011866
  0
VERTEX
  8
0
 10
393.727865
 20
724.470660
 42
0.003369
  0
VERTEX
  8
0
 10
355.133224
 20
707.533267
 42
-0.004801
  0
VERTEX
  8
0
 10
351.127137
 20
705.788850
 42
-0.007762
  0
VERTEX
  8
0
 10
347.682204
 20
704.390661
 42
-0.002562
  0
VERTEX
  8
0
 10
344.714569
 20
703.256980
 42
-0.294382
  0
VERTEX
  8
0
 10
344.325649
 20
703.341018
 42
-0.487322
  0
VERTEX
  8
0
 10
344.501691
 20
704.782664
 42
-0.006017
  0
VERTEX
  8
0
 10
353.730489
 20
710.194242
 42
-0.008633
  0
VERTEX
  8
0
 10
367.593329
 20
717.786379
 42
-0.002023
  0
VERTEX
  8
0
 10
391.077448
 20
730.004546
 42
0.003290
  0
VERTEX
  8
0
 10
402.819375
 20
736.151423
 42
0.003299
  0
VERTEX
  8
0
 10
414.468770
 20
742.446822
 42
0.003223
  0
VERTEX
  8
0
 10
424.559301
 20
748.071091
 42
0.013140
  0
VERTEX
  8
0
 10
430.577448
 20
751.688516
 42
0.002729
  0
VERTEX
  8
0
 10
443.340392
 20
759.922450
 42
0.002204
  0
VERTEX
  8
0
 10
456.958106
 20
768.899332
 42
0.000176
  0
VERTEX
  8
0
 10
470.717469
 20
778.063842
 42
0.250784
  0
VERTEX
  8
0
 10
471.000000
 20
778.591711
 42
0.466587
  0
VERTEX
  8
0
 10
470.464351
 20
779.040755
 42
0.025782
  0
VERTEX
  8
0
 10
468.042704
 20
778.481391
 42
0.017081
  0
VERTEX
  8
0
 10
464.044665
 20
777.188724
 42
0.003401
  0
SEQEND
  0
POLYLINE
  8
0
 66
1
 70
1
  0
VERTEX
  8
0
 10
375.483731
 20
639.496832
 42
-0.007171
  0
VERTEX
  8
0
 10
362.665513
 20
625.714638
 42
-0.016361
  0
VERTEX
  8
0
 10
352.514899
 20
615.781709
 42
-0.019627
  0
VERTEX
  8
0
 10
342.974821
 20
607.703857
 42
-0.016425
  0
VERTEX
  8
0
 10
332.258726
 20
599.882453
 42
0.008150
  0
VERTEX
  8
0
 10
323.734141
 20
593.874223
 42
0.005290
  0
VERTEX
  8
0
 10
314.068665
 20
586.665418
 42
0.005301
  0
VERTEX
  8
0
 10
304.913388
 20
579.530465
 42
0.011686
  0
VERTEX
  8
0
 10
298.109210
 20
573.845984
 42
-0.010465
  0
VERTEX
  8
0
 10
294.581367
 20
570.884031
 42
-0.125021
  0
VERTEX
  8
0
 10
292.975061
 20
570.149793
 42
-0.627551
  0
VERTEX
  8
0
 10
292.579848
 20
570.691928
 42
-0.031969
  0
VERTEX
  8
0
 10
294.080398
 20
573.112908
 42
-0.058039
  0
VERTEX
  8
0
 10
297.949621
 20
577.395579
 42
-0.009062
  0
VERTEX
  8
0
 10
306.665435
 20
584.766670
 42
-0.010486
  0
VERTEX
  8
0
 10
316.822080
 20
592.696695
 42
-0.012014
  0
VERTEX
  8
0
 10
326.858963
 20
599.830489
 42
0.005658
  0
VERTEX
  8
0
 10
334.806244
 20
605.328385
 42
0.154618
  0
VERTEX
  8
0
 10
336.323447
 20
607.334658
 42
0.634403
  0
VERTEX
  8
0
 10
335.571729
 20
608.079496
 42
0.011881
  0
VERTEX
  8
0
 10
328.848849
 20
605.443865
 42
0.038230
  0
VERTEX
  8
0
 10
313.949443
 20
597.803923
 42
0.036014
  0
VERTEX
  8
0
 10
300.068739
 20
587.847541
 42
0.037844
  0
VERTEX
  8
0
 10
288.565676
 20
576.696077
 42
0.061420
  0
VERTEX
  8
0
 10
280.859617
 20
565.494304
 42
0.052802
  0
VERTEX
  8
0
 10
276.523155
 20
554.457853
 42
0.069266
  0
VERTEX
  8
0
 10
275.114714
 20
543.732597
 42
0.067441
  0
VERTEX
  8
0
 10
276.680798
 20
532.810501
 42
0.046901
  0
VERTEX
  8
0
 10
281.202507
 20
521.181076
 42
0.029342
  0
VERTEX
  8
0
 10
284.351165
 20
515.722776
 42
0.030454
  0
VERTEX
  8
0
 10
288.081665
 20
510.741342
 42
0.028640
  0
VERTEX
  8
0
 10
291.698724
 20
506.942870
 42
0.190400
  0
VERTEX
  8
0
 10
294.084987
 20
506.000000
 42
0.023942
  0
VERTEX
  8
0
 10
294.818878
 20
506.035162
 42
0.038171
  0
VERTEX
  8
0
 10
295.437465
 20
506.142656
 42
0.044695
  0
VERTEX
  8
0
 10
295.879045
 20
506.297712
 42
0.294001
  0
VERTEX
  8
0
 10
296.000000
 20
506.485637
 42
0.114078
  0
VERTEX
  8
0
 10
295.919854
 20
506.832341
 42
0.001528
  0
VERTEX
  8
0
 10
294.943629
 20
508.815650
 42
0.004265
  0
VERTEX
  8
0
 10
293.782109
 20
511.107998
 42
0.002779
  0
VERTEX
  8
0
 10
292.403845
 20
513.735637
 42
-0.012584
  0
VERTEX
  8
0
 10
290.432477
 20
517.680163
 42
-0.046323
  0
VERTEX
  8
0
 10
289.488564
 20
520.300798
 42
-0.056165
  0
VERTEX
  8
0
 10
289.136219
 20
522.784447
 42
-0.024971
  0
VERTEX
  8
0
 10
289.206484
 20
526.095571
 42
-0.086700
  0
VERTEX
  8
0
 10
291.475747
 20
535.205997
 42
-0.055101
  0
VERTEX
  8
0
 10
296.989653
 20
544.677965
 42
-0.039433
  0
VERTEX
  8
0
 10
306.349328
 20
555.434039
 42
-0.015688
  0
VERTEX
  8
0
 10
320.745869
 20
568.698840
 42
0.004998
  0
VERTEX
  8
0
 10
334.426524
 20
580.773616
 42
0.010069
  0
VERTEX
  8
0
 10
344.921765
 20
590.615066
 42
0.012609
  0
VERTEX
  8
0
 10
353.118860
 20
599.031762
 42
0.020413
  0
VERTEX
  8
0
 10
359.601858
 20
606.633370
 42
0.018750
  0
VERTEX
  8
0
 10
367.546938
 20
617.580158
 42
0.004494
  0
VERTEX
  8
0
 10
379.880128
 20
636.349600
 42
0.000812
  0
VERTEX
  8
0
 10
393.195381
 20
657.089842
 42
0.592621
  0
VERTEX
  8
0
 10
392.697161
 20
658.000000
 42
0.208025
  0
VERTEX
  8
0
 10
392.364791
 20
657.855463
 42
0.000274
  0
VERTEX
  8
0
 10
387.437402
 20
652.564694
 42
0.002245
  0
VERTEX
  8
0
 10
381.929897
 20
646.590981
 42
0.001373
  0
SEQEND
  0
POLYLINE
  8
0
 66
1
 70
1
  0
VERTEX
  8
0
 10
356.529211
 20
549.724153
 42
0.034995
  0
VERTEX
  8
0
 10
352.701676
 20
538.395347
 42
0.023840
  0
VERTEX
  8
0
 10
349.889866
 20
525.084727
 42
0.023847
  0
VERTEX
  8
0
 10
348.358934
 20
511.573697
 42
0.035137
  0
VERTEX
  8
0
 10
348.419831
 20
499.637300
 42
0.023327
  0
VERTEX
  8
0
 10
350.192192
 20
485.181026
 42
0.029098
  0
VERTEX
  8
0
 10
353.233860
 20
472.001560
 42
0.027705
  0
VERTEX
  8
0
 10
357.924074
 20
458.759037
 42
0.018251
  0
VERTEX
  8
0
 10
364.695877
 20
444.082158
 42
-0.002589
  0
VERTEX
  8
0
 10
367.471572
 20
438.530228
 42
-0.004257
  0
VERTEX
  8
0
 10
369.755117
 20
433.801920
 42
-0.000767
  0
VERTEX
  8
0
 10
371.717786
 20
429.631525
 42
-0.315849
  0
VERTEX
  8
0
 10
371.665270
 20
429.331936
 42
-0.463021
  0
VERTEX
  8
0
 10
370.843408
 20
429.399365
 42
-0.003011
  0
VERTEX
  8
0
 10
366.105871
 20
436.096768
 42
-0.010217
  0
VERTEX
  8
0
 10
361.597128
 20
442.842376
 42
-0.019161
  0
VERTEX
  8
0
 10
358.278818
 20
448.500000
 42
-0.016442
  0
VERTEX
  8
0
 10
356.591516
 20
451.912032
 42
-0.007439
  0
VERTEX
  8
0
 10
354.596398
 20
456.483733
 42
-0.007356
  0
VERTEX
  8
0
 10
352.632088
 20
461.374676
 42
-0.009986
  0
VERTEX
  8
0
 10
351.012957
 20
465.848877
 42
0.009091
  0
VERTEX
  8
0
 10
349.594084
 20
469.791749
 42
0.015081
  0
VERTEX
  8
0
 10
348.238181
 20
473.055289
 42
0.008793
  0
VERTEX
  8
0
 10
347.017878
 20
475.637205
 42
0.378507
  0
VERTEX
  8
0
 10
346.500000
 20
475.848877
 42
0.291608
  0
VERTEX
  8
0
 10
346.070146
 20
475.303671
 42
0.007382
  0
VERTEX
  8
0
 10
345.789704
 20
472.027735
 42
0.012548
  0
VERTEX
  8
0
 10
345.598685
 20
467.836095
 42
0.006179
  0
VERTEX
  8
0
 10
345.555532
 20
462.500000
 42
0.006345
  0
VERTEX
  8
0
 10
345.682299
 20
455.027170
 42
0.025363
  0
VERTEX
  8
0
 10
346.049715
 20
450.465332
 42
0.034063
  0
VERTEX
  8
0
 10
346.817570
 20
446.661406
 42
0.019062
  0
VERTEX
  8
0
 10
348.237446
 20
442.157630
 42
0.030546
  0
VERTEX
  8
0
 10
351.273805
 20
435.066962
 42
0.015156
  0
VERTEX
  8
0
 10
355.931336
 20
426.459295
 42
0.013511
  0
VERTEX
  8
0
 10
361.887529
 20
416.816201
 42
0.010074
  0
VERTEX
  8
0
 10
368.952407
 20
406.500000
 42
-0.023170
  0
VERTEX
  8
0
 10
375.301739
 20
396.687078
 42
-0.013764
  0
VERTEX
  8
0
 10
381.985431
 20
384.465165
 42
-0.013425
  0
VERTEX
  8
0
 10
387.699647
 20
372.515710
 42
-0.040438
  0
VERTEX
  8
0
 10
390.696411
 20
364.000000
 42
-0.023647
  0
VERTEX
  8
0
 10
391.384593
 20
360.775345
 42
-0.013239
  0
VERTEX
  8
0
 10
391.930362
 20
356.801790
 42
-0.012804
  0
VERTEX
  8
0
 10
392.289126
 20
352.561817
 42
-0.014698
  0
VERTEX
  8
0
 10
392.408629
 20
348.500000
 42
-0.010838
  0
VERTEX
  8
0
 10
392.299315
 20
343.453403
 42
-0.033861
  0
VERTEX
  8
0
 10
391.923180
 20
340.079644
 42
-0.040936
  0
VERTEX
  8
0
 10
391.140963
 20
337.145737
 42
-0.022334
  0
VERTEX
  8
0
 10
389.733733
 20
333.693238
 42
-0.019181
  0
VERTEX
  8
0
 10
388.449425
 20
331.165259
 42
-0.012740
  0
VERTEX
  8
0
 10
386.794036
 20
328.365014
 42
-0.012833
  0
VERTEX
  8
0
 10
385.045208
 20
325.724837
 42
-0.024316
  0
VERTEX
  8
0
 10
383.482720
 20
323.708778
 42
0.018231
  0
VERTEX
  8
0
 10
382.169072
 20
322.055720
 42
0.035394
  0
VERTEX
  8
0
 10
381.267494
 20
320.631230
 42
0.047589
  0
VERTEX
  8
0
 10
380.821094
 20
319.570677
 42
0.408819
  0
VERTEX
  8
0
 10
381.033491
 20
319.155503
 42
0.277358
  0
VERTEX
  8
0
 10
384.278775
 20
319.879046
 42
0.019999
  0
VERTEX
  8
0
 10
390.957450
 20
326.762176
 42
0.027368
  0
VERTEX
  8
0
 10
397.482143
 20
334.903554
 42
0.045192
  0
VERTEX
  8
0
 10
401.938787
 20
342.500000
 42
0.026203
  0
VERTEX
  8
0
 10
404.581054
 20
348.967591
 42
0.034586
  0
VERTEX
  8
0
 10
406.256308
 20
355.108852
 42
0.032714
  0
VERTEX
  8
0
 10
407.127951
 20
361.685968
 42
0.020110
  0
VERTEX
  8
0
 10
407.332258
 20
369.500000
 42
0.045602
  0
VERTEX
  8
0
 10
405.908454
 20
382.982289
 42
0.046640
  0
VERTEX
  8
0
 10
402.066443
 20
395.877378
 42
0.036835
  0
VERTEX
  8
0
 10
395.047089
 20
410.173520
 42
0.015591
  0
VERTEX
  8
0
 10
383.666699
 20
428.275777
 42
-0.034118
  0
VERTEX
  8
0
 10
365.951102
 20
458.917152
 42
-0.057676
  0
VERTEX
  8
0
 10
356.050272
 20
486.837910
 42
-0.063221
  0
VERTEX
  8
0
 10
353.305024
 20
514.400546
 42
-0.051401
  0
VERTEX
  8
0
 10
357.147096
 20
543.854379
 42
0.008597
  0
VERTEX
  8
0
 10
358.425549
 20
549.702328
 42
0.075874
  0
VERTEX
  8
0
 10
358.548328
 20
552.336361
 42
0.719025
  0
VERTEX
  8
0
 10
357.924876
 20
552.475224
 42
0.036869
  0
SEQEND
  0
POLYLINE
  8
0
 66
1
 70
1
  0
VERTEX
  8
0
 10
337.346755
 20
548.136228
 42
0.060242
  0
VERTEX
  8
0
 10
330.007114
 20
541.336236
 42
0.036615
  0
VERTEX
  8
0
 10
323.028823
 20
531.765523
 42
0.035654
  0
VERTEX
  8
0
 10
317.275014
 20
520.861262
 42
0.044282
  0
VERTEX
  8
0
 10
313.606251
 20
510.000000
 42
0.059377
  0
VERTEX
  8
0
 10
310.599527
 20
484.773607
 42
0.049955
  0
VERTEX
  8
0
 10
313.282835
 20
457.979191
 42
0.048611
  0
VERTEX
  8
0
 10
321.375357
 20
431.517111
 42
0.049438
  0
VERTEX
  8
0
 10
334.390963
 20
407.274710
 42
0.016691
  0
VERTEX
  8
0
 10
337.666985
 20
402.733080
 42
0.046923
  0
VERTEX
  8
0
 10
340.340994
 20
399.874526
 42
0.078272
  0
VERTEX
  8
0
 10
342.507136
 20
398.489946
 42
0.246330
  0
VERTEX
  8
0
 10
344.174306
 20
398.607727
 42
0.282652
  0
VERTEX
  8
0
 10
345.267978
 20
400.780703
 42
0.015065
  0
VERTEX
  8
0
 10
344.343330
 20
408.801746
 42
0.018128
  0
VERTEX
  8
0
 10
342.399670
 20
419.413609
 42
0.008486
  0
VERTEX
  8
0
 10
339.155741
 20
433.000000
 42
-0.003926
  0
VERTEX
  8
0
 10
335.422540
 20
448.027606
 42
-0.009357
  0
VERTEX
  8
0
 10
332.946479
 20
459.262204
 42
-0.011627
  0
VERTEX
  8
0
 10
331.231546
 20
468.963704
 42
-0.010845
  0
VERTEX
  8
0
 10
329.924216
 20
478.961798
 42
0.009870
  0
VERTEX
  8
0
 10
327.888171
 20
494.772764
 42
0.505446
  0
VERTEX
  8
0
 10
325.526784
 20
496.023212
 42
0.268399
  0
VERTEX
  8
0
 10
323.294970
 20
492.742479
 42
0.007775
  0
VERTEX
  8
0
 10
322.292127
 20
475.284576
 42
-0.004743
  0
VERTEX
  8
0
 10
322.013668
 20
469.863261
 42
-0.008251
  0
VERTEX
  8
0
 10
321.665791
 20
465.372320
 42
-0.003123
  0
VERTEX
  8
0
 10
321.291906
 20
461.648013
 42
-0.552183
  0
VERTEX
  8
0
 10
320.995455
 20
461.502809
 42
-0.219685
  0
VERTEX
  8
0
 10
319.821647
 20
463.276097
 42
-0.007835
  0
VERTEX
  8
0
 10
318.681229
 20
471.575611
 42
-0.014881
  0
VERTEX
  8
0
 10
317.856180
 20
480.604756
 42
-0.018717
  0
VERTEX
  8
0
 10
317.655215
 20
489.000000
 42
-0.040053
  0
VERTEX
  8
0
 10
318.985768
 20
503.179822
 42
-0.042372
  0
VERTEX
  8
0
 10
322.555982
 20
516.692049
 42
-0.040985
  0
VERTEX
  8
0
 10
328.484430
 20
529.793412
 42
-0.033265
  0
VERTEX
  8
0
 10
336.850859
 20
542.750000
 42
0.006196
  0
VERTEX
  8
0
 10
339.146298
 20
545.914984
 42
0.011121
  0
VERTEX
  8
0
 10
340.939364
 20
548.576563
 42
0.006142
  0
VERTEX
  8
0
 10
342.291439
 20
550.741229
 42
0.584853
  0
VERTEX
  8
0
 10
342.145883
 20
551.000000
 42
0.125435
  0
VERTEX
  8
0
 10
341.631728
 20
550.868952
 42
0.009720
  0
VERTEX
  8
0
 10
340.387244
 20
550.158767
 42
0.012806
  0
VERTEX
  8
0
 10
338.922655
 20
549.233139
 42
0.009420
  0
SEQEND
  0
POLYLINE
  8
0
 66
1
 70
1
  0
VERTEX
  8
0
 10
408.001295
 20
461.950000
 42
0.062184
  0
VERTEX
  8
0
 10
408.530455
 20
457.742212
 42
0.004698
  0
VERTEX
  8
0
 10
411.475723
 20
446.612674
 42
0.006860
  0
VERTEX
  8
0
 10
415.086841
 20
434.140202
 42
0.007249
  0
VERTEX
  8
0
 10
418.976186
 20
422.000000
 42
0.006544
  0
VERTEX
  8
0
 10
421.906367
 20
413.653430
 42
0.002978
  0
VERTEX
  8
0
 10
425.944896
 20
402.814675
 42
0.002948
  0
VERTEX
  8
0
 10
430.337914
 20
391.438478
 42
0.004047
  0
VERTEX
  8
0
 10
434.431858
 20
381.262725
 42
-0.000811
  0
VERTEX
  8
0
 10
438.100045
 20
372.312940
 42
-0.001310
  0
VERTEX
  8
0
 10
441.189358
 20
364.683450
 42
-0.000182
  0
VERTEX
  8
0
 10
443.915036
 20
357.893844
 42
-0.095638
  0
VERTEX
  8
0
 10
444.000000
 20
357.453708
 42
-0.254921
  0
VERTEX
  8
0
 10
443.911902
 20
357.292141
 42
-0.159725
  0
VERTEX
  8
0
 10
443.698360
 20
357.236339
 42
-0.084295
  0
VERTEX
  8
0
 10
443.367235
 20
357.313647
 42
-0.039025
  0
VERTEX
  8
0
 10
442.973141
 20
357.516600
 42
-0.148879
  0
VERTEX
  8
0
 10
440.162575
 20
360.710552
 42
-0.002698
  0
VERTEX
  8
0
 10
430.810355
 20
381.616190
 42
-0.007226
  0
VERTEX
  8
0
 10
421.331967
 20
403.984634
 42
-0.008434
  0
VERTEX
  8
0
 10
412.999763
 20
425.500000
 42
0.002533
  0
VERTEX
  8
0
 10
406.201021
 20
443.690281
 42
0.084767
  0
VERTEX
  8
0
 10
403.853421
 20
447.679820
 42
0.772734
  0
VERTEX
  8
0
 10
402.860619
 20
447.205138
 42
0.006954
  0
VERTEX
  8
0
 10
405.532569
 20
434.347321
 42
0.007908
  0
VERTEX
  8
0
 10
411.691609
 20
408.578985
 42
0.010596
  0
VERTEX
  8
0
 10
418.136985
 20
385.436174
 42
0.011826
  0
VERTEX
  8
0
 10
424.527402
 20
365.921699
 42
0.026848
  0
VERTEX
  8
0
 10
430.481922
 20
351.590831
 42
0.021103
  0
VERTEX
  8
0
 10
436.420640
 20
340.448356
 42
0.028031
  0
VERTEX
  8
0
 10
442.788395
 20
330.895223
 42
0.021027
  0
VERTEX
  8
0
 10
451.495814
 20
320.259251
 42
0.006514
  0
VERTEX
  8
0
 10
465.459741
 20
305.000000
 42
-0.010406
  0
VERTEX
  8
0
 10
475.119678
 20
294.277584
 42
-0.024157
  0
VERTEX
  8
0
 10
481.790172
 20
285.756883
 42
-0.031296
  0
VERTEX
  8
0
 10
486.444530
 20
278.221745
 42
-0.039037
  0
VERTEX
  8
0
 10
489.743205
 20
270.688215
 42
-0.066471
  0
VERTEX
  8
0
 10
491.685490
 20
261.201045
 42
-0.089114
  0
VERTEX
  8
0
 10
490.736061
 20
252.490361
 42
-0.085800
  0
VERTEX
  8
0
 10
486.759723
 20
244.414056
 42
-0.057117
  0
VERTEX
  8
0
 10
479.764890
 20
236.796321
 42
0.008853
  0
VERTEX
  8
0
 10
477.563681
 20
234.820084
 42
0.014825
  0
VERTEX
  8
0
 10
475.793931
 20
233.073008
 42
0.008551
  0
VERTEX
  8
0
 10
474.433244
 20
231.597972
 42
0.397498
  0
VERTEX
  8
0
 10
474.444019
 20
231.222647
 42
0.288702
  0
VERTEX
  8
0
 10
474.871911
 20
231.125488
 42
0.007482
  0
VERTEX
  8
0
 10
476.797460
 20
231.836680
 42
0.013584
  0
VERTEX
  8
0
 10
479.098092
 20
232.798362
 42
0.008581
  0
VERTEX
  8
0
 10
481.730306
 20
234.038399
 42
0.042587
  0
VERTEX
  8
0
 10
487.872780
 20
237.741670
 42
0.037278
  0
VERTEX
  8
0
 10
493.598449
 20
242.585808
 42
0.038137
  0
VERTEX
  8
0
 10
498.398463
 20
248.082419
 42
0.051898
  0
VERTEX
  8
0
 10
501.768802
 20
253.731752
 42
0.022909
  0
VERTEX
  8
0
 10
503.215849
 20
257.268195
 42
0.044608
  0
VERTEX
  8
0
 10
503.979732
 20
260.217584
 42
0.034053
  0
VERTEX
  8
0
 10
504.319194
 20
263.735760
 42
0.008554
  0
VERTEX
  8
0
 10
504.382618
 20
269.500000
 42
0.011647
  0
VERTEX
  8
0
 10
504.221813
 20
274.968282
 42
0.024365
  0
VERTEX
  8
0
 10
503.790923
 20
279.202599
 42
0.025731
  0
VERTEX
  8
0
 10
502.968501
 20
283.226985
 42
0.014634
  0
VERTEX
  8
0
 10
501.584103
 20
288.000000
 42
0.024376
  0
VERTEX
  8
0
 10
497.990215
 20
297.539045
 42
0.014837
  0
VERTEX
  8
0
 10
492.872207
 20
308.446467
 42
0.013877
  0
VERTEX
  8
0
 10
486.621896
 20
319.993070
 42
0.012787
  0
VERTEX
  8
0
 10
479.575289
 20
331.500000
 42
-0.005550
  0
VERTEX
  8
0
 10
456.526523
 20
367.943142
 42
-0.011586
  0
VERTEX
  8
0
 10
439.560892
 20
396.920485
 42
-0.014353
  0
VERTEX
  8
0
 10
426.559294
 20
422.028961
 42
-0.017537
  0
VERTEX
  8
0
 10
415.920996
 20
446.238591
 42
0.003248
  0
VERTEX
  8
0
 10
412.033224
 20
455.820428
 42
0.018742
  0
VERTEX
  8
0
 10
409.756878
 20
460.791466
 42
0.100849
  0
VERTEX
  8
0
 10
408.617208
 20
462.236144
 42
0.638695
  0
SEQEND
  0
POLYLINE
  8
0
 66
1
 70
1
  0
VERTEX
  8
0
 10
478.000000
 20
390.620244
 42
0.120497
  0
VERTEX
  8
0
 10
478.754581
 20
387.534587
 42
0.002563
  0
VERTEX
  8
0
 10
486.099032
 20
373.591065
 42
0.006632
  0
VERTEX
  8
0
 10
493.814270
 20
359.574869
 42
0.011027
  0
VERTEX
  8
0
 10
500.729105
 20
348.000000
 42
0.004526
  0
VERTEX
  8
0
 10
504.802404
 20
341.639646
 42
0.002175
  0
VERTEX
  8
0
 10
510.135783
 20
333.552460
 42
0.002156
  0
VERTEX
  8
0
 10
515.773197
 20
325.163305
 42
0.003084
  0
VERTEX
  8
0
 10
520.851717
 20
317.774332
 42
-0.001099
  0
VERTEX
  8
0
 10
530.259450
 20
304.202320
 42
-0.011170
  0
VERTEX
  8
0
 10
534.027665
 20
298.470709
 42
-0.049972
  0
VERTEX
  8
0
 10
535.224895
 20
296.050542
 42
-0.699116
  0
VERTEX
  8
0
 10
534.720300
 20
295.616776
 42
-0.103046
  0
VERTEX
  8
0
 10
530.159666
 20
299.581171
 42
-0.004420
  0
VERTEX
  8
0
 10
517.369237
 20
316.723581
 42
-0.007873
  0
VERTEX
  8
0
 10
503.366270
 20
336.486743
 42
-0.007333
  0
VERTEX
  8
0
 10
489.649734
 20
357.150102
 42
0.002877
  0
VERTEX
  8
0
 10
482.565566
 20
368.031338
 42
0.018890
  0
VERTEX
  8
0
 10
478.781417
 20
373.324802
 42
0.071488
  0
VERTEX
  8
0
 10
476.827786
 20
375.217854
 42
0.612319
  0
VERTEX
  8
0
 10
476.000000
 20
374.795346
 42
0.116830
  0
VERTEX
  8
0
 10
476.735491
 20
371.690624
 42
0.000747
  0
VERTEX
  8
0
 10
489.576045
 20
346.204791
 42
0.003131
  0
VERTEX
  8
0
 10
501.542078
 20
322.906247
 42
0.014112
  0
VERTEX
  8
0
 10
508.998853
 20
309.542404
 42
0.019316
  0
VERTEX
  8
0
 10
521.257924
 20
290.658517
 42
0.038504
  0
VERTEX
  8
0
 10
532.612925
 20
276.939572
 42
0.035620
  0
VERTEX
  8
0
 10
546.510348
 20
264.472023
 42
0.014266
  0
VERTEX
  8
0
 10
567.148283
 20
249.377879
 42
-0.022256
  0
VERTEX
  8
0
 10
584.095523
 20
236.562543
 42
-0.049041
  0
VERTEX
  8
0
 10
595.509945
 20
225.043505
 42
-0.066646
  0
VERTEX
  8
0
 10
602.134306
 20
214.232537
 42
-0.105856
  0
VERTEX
  8
0
 10
604.342983
 20
203.647983
 42
-0.039206
  0
VERTEX
  8
0
 10
603.911090
 20
198.492604
 42
-0.052087
  0
VERTEX
  8
0
 10
602.675007
 20
193.956377
 42
-0.046951
  0
VERTEX
  8
0
 10
600.411039
 20
189.431806
 42
-0.024840
  0
VERTEX
  8
0
 10
596.826407
 20
184.274991
 42
0.012406
  0
VERTEX
  8
0
 10
595.297121
 20
182.187661
 42
0.019925
  0
VERTEX
  8
0
 10
594.110837
 20
180.327282
 42
0.014805
  0
VERTEX
  8
0
 10
593.275620
 20
178.791848
 42
0.324187
  0
VERTEX
  8
0
 10
593.351817
 20
178.314849
 42
0.381368
  0
VERTEX
  8
0
 10
594.872450
 20
178.228516
 42
0.011042
  0
VERTEX
  8
0
 10
600.255713
 20
182.708319
 42
0.020207
  0
VERTEX
  8
0
 10
605.537387
 20
187.693668
 42
0.040830
  0
VERTEX
  8
0
 10
609.186511
 20
192.095034
 42
0.091587
  0
VERTEX
  8
0
 10
614.403942
 20
203.533245
 42
0.088976
  0
VERTEX
  8
0
 10
615.264143
 20
216.201258
 42
0.075317
  0
VERTEX
  8
0
 10
611.567482
 20
230.095350
 42
0.044875
  0
VERTEX
  8
0
 10
603.344275
 20
245.145061
 42
0.015844
  0
VERTEX
  8
0
 10
596.922994
 20
254.112002
 42
0.018044
  0
VERTEX
  8
0
 10
590.207141
 20
262.261996
 42
0.011016
  0
VERTEX
  8
0
 10
580.625443
 20
272.602270
 42
0.002231
  0
VERTEX
  8
0
 10
563.137019
 20
290.500000
 42
-0.006369
  0
VERTEX
  8
0
 10
538.373232
 20
316.266611
 42
-0.011593
  0
VERTEX
  8
0
 10
518.913407
 20
338.027558
 42
-0.013522
  0
VERTEX
  8
0
 10
502.711885
 20
358.087002
 42
-0.014539
  0
VERTEX
  8
0
 10
488.020777
 20
378.523163
 42
0.002182
  0
VERTEX
  8
0
 10
484.496732
 20
383.690074
 42
0.003553
  0
VERTEX
  8
0
 10
481.455397
 20
388.041179
 42
0.000613
  0
VERTEX
  8
0
 10
478.743787
 20
391.852538
 42
0.242386
  0
VERTEX
  8
0
 10
478.457469
 20
392.000000
 42
0.255764
  0
VERTEX
  8
0
 10
478.281661
 20
391.903774
 42
0.062345
  0
VERTEX
  8
0
 10
478.134382
 20
391.594697
 42
0.048632
  0
VERTEX
  8
0
 10
478.033284
 20
391.148811
 42
0.031454
  0
SEQEND
  0
POLYLINE
  8
0
 66
1
 70
1
  0
VERTEX
  8
0
 10
628.000000
 20
677.576390
 42
0.099417
  0
VERTEX
  8
0
 10
628.155190
 20
676.803602
 42
0.000074
  0
VERTEX
  8
0
 10
636.099504
 20
657.829295
 42
0.000182
  0
VERTEX
  8
0
 10
643.850330
 20
639.343693
 42
0.038725
  0
VERTEX
  8
0
 10
644.735527
 20
637.621584
 42
0.219536
  0
VERTEX
  8
0
 10
645.020350
 20
637.432373
 42
0.165004
  0
VERTEX
  8
0
 10
645.395764
 20
637.497938
 42
0.094887
  0
VERTEX
  8
0
 10
645.821366
 20
637.848611
 42
0.045584
  0
VERTEX
  8
0
 10
646.223106
 20
638.434184
 42
0.196227
  0
VERTEX
  8
0
 10
646.774866
 20
642.909319
 42
0.025572
  0
VERTEX
  8
0
 10
643.727387
 20
652.230496
 42
0.029218
  0
VERTEX
  8
0
 10
639.082200
 20
662.479494
 42
0.033970
  0
VERTEX
  8
0
 10
633.472832
 20
671.590276
 42
0.004537
  0
VERTEX
  8
0
 10
630.756256
 20
675.325069
 42
0.025681
  0
VERTEX
  8
0
 10
629.191093
 20
677.224230
 42
0.101075
  0
VERTEX
  8
0
 10
628.374948
 20
677.817664
 42
0.545661
  0
SEQEND
  0
POLYLINE
  8
0
 66
1
 70
1
  0
VERTEX
  8
0
 10
586.500000
 20
647.336109
 42
0.007076
  0
VERTEX
  8
0
 10
581.728917
 20
646.688221
 42
0.032497
  0
VERTEX
  8
0
 10
579.001504
 20
646.095215
 42
0.062635
  0
VERTEX
  8
0
 10
577.475139
 20
645.442364
 42
0.266429
  0
VERTEX
  8
0
 10
577.000000
 20
644.613978
 42
0.272821
  0
VERTEX
  8
0
 10
577.431084
 20
643.882734
 42
0.002374
  0
VERTEX
  8
0
 10
583.338086
 20
640.650420
 42
0.007337
  0
VERTEX
  8
0
 10
590.304929
 20
637.012152
 42
0.004564
  0
VERTEX
  8
0
 10
598.576463
 20
632.940080
 42
-0.001927
  0
VERTEX
  8
0
 10
606.882240
 20
628.905420
 42
-0.003063
  0
VERTEX
  8
0
 10
613.956278
 20
625.381411
 42
-0.000698
  0
VERTEX
  8
0
 10
620.128095
 20
622.248699
 42
-0.137387
  0
VERTEX
  8
0
 10
620.634418
 20
621.782507
 42
-0.490503
  0
VERTEX
  8
0
 10
620.527704
 20
621.497675
 42
-0.042365
  0
VERTEX
  8
0
 10
619.648966
 20
621.305221
 42
-0.030802
  0
VERTEX
  8
0
 10
618.301486
 20
621.211633
 42
-0.015683
  0
VERTEX
  8
0
 10
616.603550
 20
621.251718
 42
0.021058
  0
VERTEX
  8
0
 10
614.854653
 20
621.274207
 42
0.031627
  0
VERTEX
  8
0
 10
613.335610
 20
621.133317
 42
0.032566
  0
VERTEX
  8
0
 10
612.183717
 20
620.874734
 42
0.259483
  0
VERTEX
  8
0
 10
611.815154
 20
620.500000
 42
0.307008
  0
VERTEX
  8
0
 10
612.172004
 20
619.445874
 42
0.006199
  0
VERTEX
  8
0
 10
616.925049
 20
615.934776
 42
0.011929
  0
VERTEX
  8
0
 10
622.971747
 20
611.798205
 42
0.006512
  0
VERTEX
  8
0
 10
630.572595
 20
607.000000
 42
-0.039351
  0
VERTEX
  8
0
 10
638.401135
 20
601.307251
 42
-0.062284
  0
VERTEX
  8
0
 10
643.981619
 20
595.183214
 42
-0.064766
  0
VERTEX
  8
0
 10
647.738671
 20
588.057861
 42
-0.046649
  0
VERTEX
  8
0
 10
650.075519
 20
579.366230
 42
0.014729
  0
VERTEX
  8
0
 10
651.794176
 20
570.838693
 42
0.318388
  0
VERTEX
  8
0
 10
653.606823
 20
569.229594
 42
0.425630
  0
VERTEX
  8
0
 10
655.166960
 20
570.531213
 42
0.016793
  0
VERTEX
  8
0
 10
655.472843
 20
578.772843
 42
0.047116
  0
VERTEX
  8
0
 10
654.726105
 20
586.988140
 42
0.061241
  0
VERTEX
  8
0
 10
652.443315
 20
594.185400
 42
0.036326
  0
VERTEX
  8
0
 10
647.575624
 20
603.051615
 42
0.006828
  0
VERTEX
  8
0
 10
637.300617
 20
618.452156
 42
-0.010671
  0
VERTEX
  8
0
 10
634.462346
 20
622.777910
 42
-0.011539
  0
VERTEX
  8
0
 10
631.887031
 20
627.110892
 42
-0.011104
  0
VERTEX
  8
0
 10
629.851545
 20
630.918132
 42
-0.053322
  0
VERTEX
  8
0
 10
628.981158
 20
633.215036
 42
0.053441
  0
VERTEX
  8
0
 10
625.967569
 20
641.162069
 42
0.150688
  0
VERTEX
  8
0
 10
621.884648
 20
645.386537
 42
0.107589
  0
VERTEX
  8
0
 10
615.219716
 20
647.367862
 42
0.020489
  0
VERTEX
  8
0
 10
602.500000
 20
647.795784
 42
0.002410
  0
VERTEX
  8
0
 10
597.302593
 20
647.732574
 42
0.002935
  0
VERTEX
  8
0
 10
592.437500
 20
647.621382
 42
0.002467
  0
VERTEX
  8
0
 10
588.347455
 20
647.483673
 42
0.020559
  0
SEQEND
  0
POLYLINE
  8
0
 66
1
 70
1
  0
VERTEX
  8
0
 10
548.000000
 20
571.110714
 42
0.056727
  0
VERTEX
  8
0
 10
549.795277
 20
569.972692
 42
0.003645
  0
VERTEX
  8
0
 10
555.402426
 20
567.303099
 42
0.005292
  0
VERTEX
  8
0
 10
562.156806
 20
564.234157
 42
0.003914
  0
VERTEX
  8
0
 10
569.689108
 20
560.977702
 42
-0.014020
  0
VERTEX
  8
0
 10
586.327012
 20
553.381922
 42
-0.071825
  0
VERTEX
  8
0
 10
594.686507
 20
547.666346
 42
-0.091061
  0
VERTEX
  8
0
 10
600.125438
 20
540.452872
 42
-0.029954
  0
VERTEX
  8
0
 10
605.377580
 20
528.186046
 42
0.004774
  0
VERTEX
  8
0
 10
606.485594
 20
525.189757
 42
0.004869
  0
VERTEX
  8
0
 10
607.643539
 20
522.234895
 42
0.004735
  0
VERTEX
  8
0
 10
608.698696
 20
519.687468
 42
0.020119
  0
VERTEX
  8
0
 10
609.404521
 20
518.197466
 42
0.000000
  0
VERTEX
  8
0
 10
610.805900
 20
515.522840
 42
0.000000
  0
VERTEX
  8
0
 10
611.536964
 20
520.397928
 42
0.037960
  0
VERTEX
  8
0
 10
611.960797
 20
526.196177
 42
0.023253
  0
VERTEX
  8
0
 10
611.622019
 20
533.046419
 42
0.023206
  0
VERTEX
  8
0
 10
610.688903
 20
539.558712
 42
0.057001
  0
VERTEX
  8
0
 10
609.250162
 20
544.167320
 42
0.097629
  0
VERTEX
  8
0
 10
604.459629
 20
551.005233
 42
0.072561
  0
VERTEX
  8
0
 10
596.938401
 20
556.376624
 42
0.040034
  0
VERTEX
  8
0
 10
584.464107
 20
561.581350
 42
0.008553
  0
VERTEX
  8
0
 10
562.000000
 20
568.484730
 42
0.000456
  0
VERTEX
  8
0
 10
549.615354
 20
572.047734
 42
0.023455
  0
VERTEX
  8
0
 10
547.177973
 20
572.624390
 42
0.676014
  0
VERTEX
  8
0
 10
546.933037
 20
572.239993
 42
0.067834
  0
SEQEND
  0
POLYLINE
  8
0
 66
1
 70
1
  0
VERTEX
  8
0
 10
668.000000
 20
567.219270
 42
0.031801
  0
VERTEX
  8
0
 10
659.633589
 20
561.115906
 42
0.007178
  0
VERTEX
  8
0
 10
646.257039
 20
549.660324
 42
0.006521
  0
VERTEX
  8
0
 10
633.243319
 20
537.882382
 42
0.042665
  0
VERTEX
  8
0
 10
627.327700
 20
531.362990
 42
0.035543
  0
VERTEX
  8
0
 10
625.251216
 20
528.197381
 42
0.707272
  0
VERTEX
  8
0
 10
625.775120
 20
527.602076
 42
0.083393
  0
VERTEX
  8
0
 10
628.362584
 20
529.183037
 42
0.009088
  0
VERTEX
  8
0
 10
633.568638
 20
533.870711
 42
-0.011541
  0
VERTEX
  8
0
 10
637.408648
 20
537.294394
 42
-0.004594
  0
VERTEX
  8
0
 10
642.825285
 20
541.818703
 42
-0.004543
  0
VERTEX
  8
0
 10
648.760921
 20
546.595119
 42
-0.005698
  0
VERTEX
  8
0
 10
654.353741
 20
550.909975
 42
0.005293
  0
VERTEX
  8
0
 10
663.907497
 20
558.268352
 42
0.022995
  0
VERTEX
  8
0
 10
669.314525
 20
562.942961
 42
0.036386
  0
VERTEX
  8
0
 10
672.327888
 20
566.248468
 42
0.221584
  0
VERTEX
  8
0
 10
672.842365
 20
568.442412
 42
0.173263
  0
VERTEX
  8
0
 10
672.430501
 20
569.115835
 42
0.235776
  0
VERTEX
  8
0
 10
671.745959
 20
569.265809
 42
0.071395
  0
VERTEX
  8
0
 10
670.515190
 20
568.759945
 42
0.008541
  0
SEQEND
  0
ENDSEC
  0
EOF
